<svg width="3" height="12" viewBox="0 0 3 12" fill="none" xmlns="http://www.w3.org/2000/svg">
<path d="M2.76435 10.7056C2.76435 11.0906 2.64487 11.4026 2.40591 11.6416C2.16695 11.8805 1.86161 12 1.4899 12C1.11818 12 0.819478 11.8805 0.593793 11.6416C0.354832 11.4026 0.235352 11.0906 0.235352 10.7056C0.235352 10.3206 0.354832 10.0153 0.593793 9.78961C0.819478 9.56393 1.11818 9.45108 1.4899 9.45108C1.86161 9.45108 2.16695 9.56393 2.40591 9.78961C2.64487 10.0153 2.76435 10.3206 2.76435 10.7056Z" fill="black"/>
<path d="M2.76435 5.98009C2.76435 6.36508 2.64487 6.67706 2.40591 6.91602C2.16695 7.15498 1.86161 7.27446 1.4899 7.27446C1.11818 7.27446 0.819478 7.15498 0.593793 6.91602C0.354832 6.67706 0.235352 6.36508 0.235352 5.98009C0.235352 5.59509 0.354832 5.28976 0.593793 5.06407C0.819478 4.83839 1.11818 4.72554 1.4899 4.72554C1.86161 4.72554 2.16695 4.83839 2.40591 5.06407C2.64487 5.28976 2.76435 5.59509 2.76435 5.98009Z" fill="black"/>
<path d="M2.76435 1.25454C2.76435 1.63954 2.64487 1.95151 2.40591 2.19047C2.16695 2.42943 1.86161 2.54891 1.4899 2.54891C1.11818 2.54891 0.819478 2.42943 0.593793 2.19047C0.354832 1.95151 0.235352 1.63954 0.235352 1.25454C0.235352 0.869552 0.354832 0.564213 0.593793 0.338528C0.819478 0.112843 1.11818 0 1.4899 0C1.86161 0 2.16695 0.112843 2.40591 0.338528C2.64487 0.564213 2.76435 0.869552 2.76435 1.25454Z" fill="black"/>
</svg>
