<svg width="18" height="18" viewBox="0 0 18 18" fill="none" xmlns="http://www.w3.org/2000/svg">
<path d="M9.76169 2.24219C10.1406 2.24219 10.4843 2.47266 10.6289 2.82812C10.7734 3.17969 10.6875 3.58594 10.414 3.85156L5.2656 9L10.414 14.1484C10.7812 14.5156 10.7812 15.1094 10.414 15.4766C10.0468 15.8437 9.4531 15.8437 9.08591 15.4766L3.27341 9.66406C3.09763 9.48828 2.99997 9.25 2.99997 9C2.99997 8.75 3.09763 8.51172 3.27341 8.33594L9.08591 2.52344C9.26169 2.34375 9.50778 2.24219 9.76169 2.24219Z" fill="#1F212B" fill-opacity="0.35"/>
<path d="M14.0634 2.25C14.4424 2.25 14.7861 2.48047 14.9306 2.83594C15.0752 3.1875 14.9892 3.59375 14.7158 3.85937L9.56735 9.00781L14.7158 14.1562C15.083 14.5234 15.083 15.1172 14.7158 15.4844C14.3486 15.8516 13.7549 15.8516 13.3877 15.4844L7.57517 9.67187C7.39938 9.49609 7.30173 9.25781 7.30173 9.00781C7.30173 8.75781 7.39938 8.51953 7.57517 8.34375L13.3877 2.53125C13.5634 2.35156 13.8095 2.25 14.0634 2.25Z" fill="#1F212B" fill-opacity="0.35"/>
</svg>
