<svg width="500" height="500" viewBox="0 0 500 500" fill="none" xmlns="http://www.w3.org/2000/svg">
<g opacity="0.05">
<path d="M238.33 184.49L187.19 214C181.59 217.24 177 225.18 177 231.65V344.55L172.25 347.29V227.81C172.25 221.34 176.84 213.39 182.44 210.16L238.55 177.76C244.16 174.53 248.74 177.17 248.74 183.65V303.14L244 305.91V187.74C244 184.17 241.43 182.71 238.33 184.49Z" fill="#E0E0E0"/>
<path d="M283.32 436.09C283.32 430.27 279.24 423.19 274.2 420.28C271.55 418.75 269.2 418.69 267.51 419.8L261.35 423.32L274.45 445.57L280.55 442.06C282.25 441.11 283.32 439.06 283.32 436.09Z" fill="#455A64"/>
<path d="M267.8 424C272.85 426.91 276.93 434 276.93 439.81C276.93 445.62 272.85 448 267.8 445C262.75 442 258.67 435 258.67 429.19C258.67 423.38 262.76 421.05 267.8 424Z" fill="#37474F"/>
<path d="M264.71 432.72C264.71 430.44 266.1 429.4 267.8 430.38C268.742 431.054 269.512 431.94 270.048 432.967C270.585 433.993 270.873 435.132 270.89 436.29C270.89 438.56 269.51 439.61 267.8 438.62C266.86 437.946 266.091 437.061 265.555 436.037C265.018 435.012 264.729 433.876 264.71 432.72Z" fill="#263238"/>
<path d="M278.499 414.25C278.499 414.25 278.499 424.66 273.499 428.35C272.569 429.04 271.569 429.52 270.989 430.01C269.719 431.07 270.559 433.01 272.099 433.83C274.339 435.03 286.529 431.78 291.689 421.88L278.499 414.25Z" fill="#F0F0F0"/>
<path d="M273.77 417C273.77 417 273.77 427.42 268.77 431.11C267.84 431.8 266.84 432.28 266.26 432.77C264.99 433.77 265.83 435.77 267.37 436.59C269.61 437.79 281.8 434.54 286.96 424.59L273.77 417Z" fill="#FAFAFA"/>
<path d="M267.8 433.49C268.056 433.656 268.27 433.88 268.423 434.144C268.576 434.408 268.664 434.705 268.68 435.01C268.68 435.57 268.29 435.79 267.8 435.51C267.546 435.344 267.336 435.121 267.185 434.859C267.033 434.596 266.946 434.302 266.93 434C266.93 433.44 267.32 433.21 267.8 433.49Z" fill="#263238"/>
<path d="M184.209 378.87C184.209 373.04 180.119 365.96 175.079 363.05C172.429 361.53 170.079 361.47 168.389 362.58L162.239 366.1L175.329 388.34L181.429 384.83C183.139 383.89 184.209 381.84 184.209 378.87Z" fill="#455A64"/>
<path d="M168.69 366.74C173.69 369.65 177.82 376.74 177.82 382.55C177.82 388.36 173.73 390.73 168.69 387.82C163.65 384.91 159.56 377.82 159.56 372.01C159.56 366.2 163.65 363.83 168.69 366.74Z" fill="#37474F"/>
<path d="M165.6 375.49C165.6 373.22 166.98 372.17 168.69 373.16C169.631 373.833 170.401 374.717 170.938 375.742C171.475 376.767 171.763 377.903 171.78 379.06C171.78 381.34 170.4 382.38 168.69 381.4C167.748 380.726 166.978 379.839 166.441 378.813C165.904 377.786 165.616 376.648 165.6 375.49Z" fill="#263238"/>
<path d="M179.39 357C179.39 357 179.39 367.42 174.39 371.11C173.45 371.8 172.46 372.28 171.87 372.77C170.61 373.77 171.45 375.77 172.99 376.59C175.22 377.79 187.41 374.54 192.58 364.59L179.39 357Z" fill="#F0F0F0"/>
<path d="M174.66 359.74C174.66 359.74 174.66 370.16 169.66 373.84C168.72 374.54 167.73 375.02 167.14 375.51C165.88 376.56 166.71 378.51 168.25 379.32C170.49 380.52 182.68 377.32 187.84 367.37L174.66 359.74Z" fill="#FAFAFA"/>
<path d="M168.69 376.27C168.942 376.436 169.153 376.659 169.304 376.922C169.455 377.184 169.542 377.478 169.56 377.78C169.56 378.34 169.17 378.57 168.69 378.29C168.437 378.12 168.226 377.895 168.074 377.632C167.921 377.368 167.831 377.073 167.81 376.77C167.81 376.21 168.21 376 168.69 376.27Z" fill="#263238"/>
<path d="M167.47 350.07L253.52 300.38L387.39 377.67L301.33 427.36L167.47 350.07Z" fill="#455A64"/>
<path d="M167.47 350.07V355.59L301.33 432.88V427.36L167.47 350.07Z" fill="#37474F"/>
<path d="M387.389 377.67V383.19L301.329 432.88V427.36L387.389 377.67Z" fill="#263238"/>
<path d="M175 349.83L250.38 393.37L330.02 347.45L254.43 304.02L175 349.83Z" fill="#37474F"/>
<path d="M322.73 299.77L253.68 259.85L180.97 301.92L250.02 341.84L322.73 299.77Z" fill="#59BF78"/>
<path opacity="0.3" d="M322.73 299.77L253.68 259.85L180.97 301.92L250.02 341.84L322.73 299.77Z" fill="white"/>
<path d="M250.02 390.1L322.73 348.03V299.77L250.02 341.84V390.1Z" fill="#59BF78"/>
<path d="M258.48 372.639C258.2 372.64 257.924 372.568 257.68 372.429C257.333 372.179 257.059 371.843 256.883 371.453C256.708 371.064 256.638 370.635 256.68 370.209V363.659V363.169L257.01 363.229L262.15 360.229V367.549C262.132 368.489 261.893 369.41 261.454 370.241C261.015 371.071 260.386 371.786 259.62 372.329C259.273 372.529 258.88 372.635 258.48 372.639ZM257.48 364.149V370.209C257.445 370.49 257.48 370.776 257.583 371.039C257.686 371.303 257.854 371.537 258.07 371.719C258.252 371.795 258.45 371.824 258.645 371.803C258.841 371.782 259.028 371.712 259.19 371.599C259.828 371.126 260.35 370.514 260.716 369.809C261.081 369.103 261.281 368.324 261.3 367.529V366.999H259.4L259.03 364.429L257.48 364.149ZM260.11 366.149H261.3V361.629L258.24 363.419L259.76 363.689L260.11 366.149Z" fill="#455A64"/>
<path d="M259.41 377.87C259.355 377.87 259.301 377.859 259.251 377.838C259.2 377.816 259.155 377.785 259.117 377.746C259.078 377.707 259.048 377.661 259.028 377.61C259.008 377.559 258.999 377.505 259 377.45V372C259 371.891 259.043 371.787 259.12 371.71C259.197 371.633 259.301 371.59 259.41 371.59C259.519 371.59 259.623 371.633 259.7 371.71C259.777 371.787 259.82 371.891 259.82 372V377.5C259.81 377.602 259.763 377.696 259.687 377.764C259.611 377.833 259.512 377.87 259.41 377.87Z" fill="#455A64"/>
<path d="M256.999 379.25C256.926 379.248 256.855 379.228 256.792 379.191C256.729 379.155 256.677 379.103 256.639 379.04C256.588 378.945 256.574 378.834 256.602 378.73C256.63 378.626 256.697 378.536 256.789 378.48L261.579 375.72C261.626 375.692 261.677 375.673 261.731 375.665C261.784 375.657 261.839 375.661 261.891 375.675C261.944 375.689 261.993 375.713 262.035 375.747C262.078 375.78 262.113 375.822 262.139 375.87C262.194 375.964 262.208 376.076 262.18 376.181C262.152 376.286 262.083 376.375 261.989 376.43L257.209 379.19C257.146 379.228 257.073 379.249 256.999 379.25Z" fill="#455A64"/>
<path d="M274.06 369.77C273.902 369.77 273.746 369.729 273.61 369.65C273.446 369.542 273.314 369.393 273.227 369.217C273.141 369.041 273.104 368.845 273.12 368.65V367.53C273.12 367.421 273.163 367.317 273.24 367.24C273.317 367.163 273.421 367.12 273.53 367.12C273.638 367.12 273.743 367.163 273.82 367.24C273.897 367.317 273.94 367.421 273.94 367.53V368.65C273.933 368.699 273.937 368.75 273.951 368.798C273.965 368.846 273.988 368.891 274.02 368.93C274.02 368.93 274.15 368.93 274.29 368.86C274.542 368.622 274.741 368.333 274.872 368.012C275.003 367.691 275.064 367.346 275.05 367V359.68C275.065 359.581 275.115 359.49 275.192 359.425C275.268 359.36 275.365 359.324 275.465 359.324C275.565 359.324 275.662 359.36 275.738 359.425C275.814 359.49 275.864 359.581 275.88 359.68V367C275.898 367.489 275.802 367.977 275.599 368.423C275.396 368.869 275.091 369.262 274.71 369.57C274.515 369.694 274.291 369.763 274.06 369.77Z" fill="#455A64"/>
<path d="M269.72 363.37V362.66C269.819 360.831 270.347 359.051 271.263 357.464C272.179 355.878 273.455 354.53 274.99 353.53C275.538 353.069 276.215 352.789 276.929 352.727C277.642 352.664 278.358 352.823 278.978 353.181C279.598 353.539 280.093 354.08 280.396 354.729C280.699 355.378 280.794 356.104 280.67 356.81V357.05L269.72 363.37ZM277.46 353.61C276.729 353.641 276.019 353.861 275.4 354.25C274.092 355.107 272.985 356.236 272.154 357.559C271.322 358.883 270.785 360.37 270.58 361.92L279.84 356.58C279.875 356.06 279.777 355.54 279.555 355.069C279.333 354.598 278.993 354.192 278.57 353.89C278.231 353.699 277.848 353.602 277.46 353.61Z" fill="#455A64"/>
<path d="M288.849 361.34C288.796 361.34 288.742 361.329 288.693 361.308C288.643 361.288 288.598 361.258 288.56 361.219C288.521 361.181 288.491 361.136 288.471 361.086C288.45 361.037 288.439 360.983 288.439 360.93V346.93C288.439 346.821 288.483 346.717 288.56 346.64C288.636 346.563 288.741 346.52 288.849 346.52C288.958 346.52 289.062 346.563 289.139 346.64C289.216 346.717 289.259 346.821 289.259 346.93V360.93C289.259 360.983 289.249 361.037 289.228 361.086C289.208 361.136 289.177 361.181 289.139 361.219C289.101 361.258 289.056 361.288 289.006 361.308C288.957 361.329 288.903 361.34 288.849 361.34Z" fill="#455A64"/>
<path d="M287.64 350.109C287.587 350.122 287.533 350.122 287.48 350.109C287.381 350.066 287.303 349.984 287.263 349.883C287.224 349.782 287.226 349.669 287.27 349.569L288.73 346.189L290.37 348.079C290.408 348.118 290.438 348.163 290.459 348.212C290.48 348.262 290.49 348.316 290.49 348.369C290.49 348.423 290.48 348.477 290.459 348.526C290.438 348.576 290.408 348.621 290.37 348.659C290.285 348.731 290.175 348.765 290.065 348.756C289.954 348.747 289.852 348.694 289.78 348.609L289.01 347.719L288.01 349.899C287.974 349.966 287.921 350.021 287.855 350.058C287.79 350.095 287.715 350.113 287.64 350.109Z" fill="#455A64"/>
<path d="M292.66 359.17C292.606 359.17 292.553 359.159 292.503 359.138C292.453 359.118 292.408 359.088 292.37 359.05C292.332 359.011 292.302 358.966 292.281 358.917C292.261 358.867 292.25 358.813 292.25 358.76V344.76C292.25 344.651 292.293 344.547 292.37 344.47C292.447 344.393 292.551 344.35 292.66 344.35C292.769 344.35 292.873 344.393 292.95 344.47C293.027 344.547 293.07 344.651 293.07 344.76V358.76C293.07 358.868 293.027 358.973 292.95 359.05C292.873 359.126 292.769 359.17 292.66 359.17Z" fill="#455A64"/>
<path d="M291.45 347.94C291.398 347.953 291.343 347.953 291.29 347.94C291.24 347.919 291.195 347.888 291.156 347.85C291.118 347.811 291.088 347.766 291.067 347.715C291.047 347.665 291.037 347.611 291.037 347.557C291.038 347.503 291.049 347.449 291.07 347.4L292.54 344.02L294.17 345.9C294.209 345.937 294.241 345.982 294.262 346.032C294.284 346.082 294.295 346.135 294.295 346.19C294.295 346.244 294.284 346.297 294.262 346.347C294.241 346.397 294.209 346.442 294.17 346.48C294.132 346.518 294.087 346.548 294.037 346.568C293.987 346.589 293.934 346.6 293.88 346.6C293.826 346.6 293.773 346.589 293.723 346.568C293.673 346.548 293.628 346.518 293.59 346.48L292.82 345.59L291.87 347.77C291.823 347.834 291.759 347.884 291.684 347.914C291.61 347.944 291.529 347.953 291.45 347.94Z" fill="#455A64"/>
<path d="M250.02 390.099L180.97 350.189V301.919L250.02 341.839V390.099Z" fill="#59BF78"/>
<path opacity="0.1" d="M250.02 390.099L180.97 350.189V301.919L250.02 341.839V390.099Z" fill="black"/>
<path d="M189.7 331.11L210 342.81C210.266 342.985 210.488 343.22 210.648 343.496C210.808 343.772 210.901 344.081 210.92 344.4V358.48C210.92 359.64 210.1 360.12 209.09 359.54L188.83 347.83C188.562 347.659 188.339 347.426 188.179 347.151C188.019 346.876 187.927 346.567 187.91 346.25V332.16C187.88 331 188.7 330.53 189.7 331.11Z" fill="#FAFAFA"/>
<path d="M189.2 333.3L189.89 333.7V346.13L189.2 345.73V333.3Z" fill="#455A64"/>
<path d="M192 334.919L193.19 335.619V348.049L192 347.349V334.919Z" fill="#455A64"/>
<path d="M194.81 336.54L195.5 336.94V349.37L194.81 348.97V336.54Z" fill="#455A64"/>
<path d="M196.93 337.74L198.31 338.56V350.99L196.93 350.17V337.74Z" fill="#455A64"/>
<path d="M200.42 339.78L201.11 340.18V352.61L200.42 352.21V339.78Z" fill="#455A64"/>
<path d="M202.439 340.919L203.919 341.799V354.229L202.439 353.349V340.919Z" fill="#455A64"/>
<path d="M206.029 343.02L206.719 343.42V355.85L206.029 355.45V343.02Z" fill="#455A64"/>
<path d="M207.63 343.93L207.98 344.13V356.56L207.63 356.36V343.93Z" fill="#455A64"/>
<path d="M204.75 342.34L205.1 342.54V354.97L204.75 354.77V342.34Z" fill="#455A64"/>
<path d="M199.1 339.03L199.45 339.23V351.66L199.1 351.46V339.03Z" fill="#455A64"/>
<path d="M196.01 337.25L196.35 337.45V349.88L196.01 349.69V337.25Z" fill="#455A64"/>
<path d="M193.779 336.03L194.129 336.23V348.66L193.779 348.46V336.03Z" fill="#455A64"/>
<path d="M190.77 334.2L191.11 334.39V346.83L190.77 346.63V334.2Z" fill="#455A64"/>
<path d="M208.84 344.64L209.53 345.04V357.47L208.84 357.07V344.64Z" fill="#455A64"/>
<path d="M209.96 325.99L214.68 328.72V321.39L209.96 318.66V325.99Z" fill="#37474F"/>
<path d="M214.68 321.39L287.39 279.32L282.67 276.59L209.96 318.66L214.68 321.39Z" fill="#455A64"/>
<path opacity="0.1" d="M181.97 301.35L238.12 333.67L309.76 292.25L253.68 259.85L181.97 301.35Z" fill="black"/>
<path d="M304.07 245.8L248.17 213.59L182.09 251.8L237.99 284.01L304.07 245.8Z" fill="#59BF78"/>
<path opacity="0.7" d="M304.07 245.8L248.17 213.59L182.09 251.8L237.99 284.01L304.07 245.8Z" fill="white"/>
<path d="M237.99 330.37L304.07 292.15V245.8L237.99 284.01V330.37Z" fill="#59BF78"/>
<path opacity="0.6" d="M237.99 330.37L304.07 292.15V245.8L237.99 284.01V330.37Z" fill="white"/>
<path d="M247 312.54C246.755 312.541 246.514 312.479 246.3 312.36C246 312.139 245.762 311.844 245.61 311.504C245.458 311.164 245.396 310.791 245.43 310.42V304.73V304.31L245.72 304.36L250.18 301.74V308.1C250.171 308.917 249.967 309.72 249.587 310.444C249.206 311.167 248.659 311.789 247.99 312.26C247.689 312.435 247.349 312.531 247 312.54ZM246.14 305.15V310.42C246.107 310.664 246.138 310.913 246.229 311.143C246.32 311.372 246.469 311.574 246.66 311.73C246.821 311.803 246.998 311.832 247.174 311.815C247.349 311.797 247.517 311.733 247.66 311.63C248.218 311.22 248.674 310.688 248.993 310.074C249.312 309.46 249.486 308.781 249.5 308.09V307.62H247.85L247.52 305.39L246.14 305.15ZM248.43 306.91H249.43V303L246.76 304.56L248.08 304.8L248.43 306.91Z" fill="#455A64"/>
<path d="M247.77 317.08C247.675 317.08 247.583 317.042 247.516 316.974C247.448 316.907 247.41 316.815 247.41 316.72V311.94C247.402 311.888 247.404 311.835 247.418 311.785C247.432 311.734 247.457 311.688 247.49 311.648C247.524 311.608 247.566 311.575 247.614 311.553C247.661 311.531 247.713 311.52 247.765 311.52C247.818 311.52 247.869 311.531 247.917 311.553C247.964 311.575 248.006 311.608 248.04 311.648C248.074 311.688 248.099 311.734 248.112 311.785C248.126 311.835 248.129 311.888 248.12 311.94V316.72C248.12 316.814 248.084 316.904 248.018 316.971C247.953 317.038 247.864 317.077 247.77 317.08Z" fill="#455A64"/>
<path d="M245.69 318.28C245.626 318.283 245.563 318.267 245.508 318.235C245.453 318.203 245.409 318.156 245.38 318.1C245.333 318.017 245.32 317.92 245.344 317.828C245.368 317.736 245.428 317.658 245.51 317.61L249.67 315.21C249.711 315.178 249.758 315.155 249.808 315.143C249.859 315.131 249.911 315.13 249.962 315.14C250.013 315.15 250.061 315.171 250.103 315.202C250.145 315.232 250.18 315.271 250.205 315.316C250.231 315.361 250.246 315.412 250.25 315.463C250.255 315.515 250.248 315.567 250.23 315.615C250.213 315.664 250.185 315.709 250.148 315.746C250.112 315.782 250.068 315.811 250.02 315.83L245.87 318.23C245.815 318.26 245.753 318.277 245.69 318.28Z" fill="#455A64"/>
<path d="M260.499 310C260.363 310.002 260.228 309.968 260.109 309.9C259.971 309.804 259.859 309.675 259.784 309.525C259.709 309.375 259.673 309.208 259.679 309.04V308.04C259.679 307.945 259.717 307.853 259.785 307.786C259.852 307.718 259.944 307.68 260.039 307.68C260.135 307.68 260.226 307.718 260.294 307.786C260.362 307.853 260.399 307.945 260.399 308.04V309.04C260.399 309.19 260.399 309.26 260.469 309.28C260.551 309.29 260.633 309.269 260.699 309.22C260.921 309.014 261.096 308.763 261.212 308.483C261.327 308.204 261.381 307.902 261.369 307.6V301.24C261.361 301.188 261.363 301.136 261.377 301.085C261.391 301.035 261.416 300.988 261.45 300.948C261.483 300.908 261.525 300.876 261.573 300.854C261.62 300.832 261.672 300.82 261.724 300.82C261.777 300.82 261.828 300.832 261.876 300.854C261.923 300.876 261.966 300.908 261.999 300.948C262.033 300.988 262.058 301.035 262.072 301.085C262.085 301.136 262.088 301.188 262.079 301.24V307.6C262.099 308.024 262.019 308.447 261.845 308.834C261.671 309.222 261.409 309.563 261.079 309.83C260.904 309.937 260.704 309.995 260.499 310Z" fill="#455A64"/>
<path d="M256.729 304.48V303.86C256.816 302.27 257.275 300.722 258.071 299.343C258.867 297.964 259.976 296.791 261.309 295.92C261.781 295.496 262.374 295.232 263.005 295.166C263.636 295.1 264.271 295.236 264.82 295.554C265.368 295.871 265.802 296.355 266.059 296.934C266.316 297.514 266.383 298.16 266.249 298.78V298.98L256.729 304.48ZM263.449 295.99C262.817 296.018 262.204 296.211 261.669 296.55C260.532 297.295 259.569 298.276 258.846 299.427C258.122 300.578 257.656 301.872 257.479 303.22L265.479 298.57C265.51 298.119 265.424 297.668 265.23 297.26C265.036 296.851 264.739 296.5 264.369 296.24C264.089 296.081 263.772 295.999 263.449 296V295.99Z" fill="#455A64"/>
<path d="M273.36 302.71C273.313 302.71 273.266 302.701 273.222 302.683C273.179 302.665 273.139 302.638 273.105 302.605C273.072 302.571 273.045 302.532 273.027 302.488C273.009 302.444 273 302.397 273 302.35V290.17C273 290.075 273.038 289.983 273.105 289.915C273.173 289.848 273.265 289.81 273.36 289.81C273.455 289.81 273.547 289.848 273.615 289.915C273.682 289.983 273.72 290.075 273.72 290.17V302.35C273.72 302.446 273.682 302.537 273.615 302.605C273.547 302.672 273.455 302.71 273.36 302.71Z" fill="#455A64"/>
<path d="M272.31 293C272.25 293 272.192 292.986 272.14 292.958C272.087 292.93 272.043 292.889 272.011 292.839C271.979 292.788 271.961 292.731 271.957 292.672C271.953 292.613 271.964 292.553 271.99 292.5L273.26 289.55L274.68 291.19C274.713 291.223 274.74 291.263 274.758 291.307C274.776 291.351 274.786 291.397 274.786 291.445C274.786 291.492 274.776 291.539 274.758 291.583C274.74 291.627 274.713 291.666 274.68 291.7C274.647 291.733 274.608 291.759 274.565 291.778C274.522 291.796 274.476 291.805 274.43 291.805C274.383 291.805 274.337 291.796 274.294 291.778C274.251 291.759 274.212 291.733 274.18 291.7L273.5 290.92L272.68 292.82C272.644 292.884 272.589 292.936 272.523 292.968C272.457 293 272.383 293.011 272.31 293Z" fill="#455A64"/>
<path d="M276.67 300.82C276.622 300.82 276.575 300.811 276.532 300.793C276.488 300.774 276.448 300.748 276.415 300.714C276.382 300.681 276.355 300.641 276.337 300.598C276.319 300.554 276.31 300.507 276.31 300.46V288.28C276.31 288.184 276.347 288.093 276.415 288.025C276.483 287.958 276.574 287.92 276.67 287.92C276.765 287.92 276.857 287.958 276.924 288.025C276.992 288.093 277.03 288.184 277.03 288.28V300.46C277.03 300.507 277.02 300.554 277.002 300.598C276.984 300.641 276.958 300.681 276.924 300.714C276.891 300.748 276.851 300.774 276.807 300.793C276.764 300.811 276.717 300.82 276.67 300.82Z" fill="#455A64"/>
<path d="M275.62 291.06H275.48C275.395 291.02 275.328 290.949 275.294 290.861C275.261 290.773 275.263 290.676 275.3 290.59L276.57 287.64L277.99 289.29C278.02 289.325 278.043 289.366 278.058 289.41C278.072 289.455 278.077 289.501 278.074 289.548C278.07 289.594 278.057 289.64 278.036 289.681C278.015 289.723 277.986 289.759 277.95 289.79C277.915 289.82 277.874 289.843 277.829 289.857C277.785 289.871 277.738 289.877 277.692 289.873C277.645 289.869 277.6 289.857 277.559 289.835C277.517 289.814 277.48 289.785 277.45 289.75L276.77 288.97L275.95 290.87C275.918 290.929 275.871 290.978 275.812 291.012C275.754 291.045 275.687 291.062 275.62 291.06Z" fill="#455A64"/>
<path d="M237.99 330.37L182.09 298.15V251.8L237.99 284.01V330.37Z" fill="#59BF78"/>
<path opacity="0.4" d="M237.99 330.37L182.09 298.15V251.8L237.99 284.01V330.37Z" fill="white"/>
<path d="M189.7 278.21L210 289.91C210.266 290.085 210.488 290.32 210.648 290.596C210.808 290.872 210.901 291.182 210.92 291.5V305.58C210.92 306.74 210.1 307.22 209.09 306.64L188.83 294.93C188.562 294.759 188.339 294.526 188.179 294.251C188.019 293.976 187.927 293.667 187.91 293.35V279.26C187.88 278.1 188.7 277.63 189.7 278.21Z" fill="#FAFAFA"/>
<path d="M189.2 280.4L189.89 280.8V293.23L189.2 292.83V280.4Z" fill="#455A64"/>
<path d="M192 282.02L193.19 282.72V295.15L192 294.45V282.02Z" fill="#455A64"/>
<path d="M194.81 283.64L195.5 284.04V296.47L194.81 296.07V283.64Z" fill="#455A64"/>
<path d="M196.93 284.84L198.31 285.66V298.09L196.93 297.27V284.84Z" fill="#455A64"/>
<path d="M200.42 286.88L201.11 287.28V299.71L200.42 299.31V286.88Z" fill="#455A64"/>
<path d="M202.439 288.02L203.919 288.9V301.33L202.439 300.45V288.02Z" fill="#455A64"/>
<path d="M206.03 290.12L206.72 290.52V302.95L206.03 302.55V290.12Z" fill="#455A64"/>
<path d="M207.63 291.03L207.98 291.23V303.66L207.63 303.46V291.03Z" fill="#455A64"/>
<path d="M204.75 289.44L205.1 289.64V302.07L204.75 301.87V289.44Z" fill="#455A64"/>
<path d="M199.1 286.13L199.45 286.33V298.76L199.1 298.56V286.13Z" fill="#455A64"/>
<path d="M196.01 284.35L196.35 284.55V296.98L196.01 296.79V284.35Z" fill="#455A64"/>
<path d="M193.78 283.13L194.13 283.32V295.76L193.78 295.56V283.13Z" fill="#455A64"/>
<path d="M190.77 281.3L191.11 281.49V293.93L190.77 293.73V281.3Z" fill="#455A64"/>
<path d="M208.84 291.74L209.53 292.13V304.57L208.84 304.17V291.74Z" fill="#455A64"/>
<path d="M205.18 273.18L210.44 276.22V268.06L205.18 265.02V273.18Z" fill="#37474F"/>
<path d="M210.44 268.06L276.53 229.84L271.26 226.81L205.18 265.02L210.44 268.06Z" fill="#455A64"/>
<path d="M324.16 368.25C330.45 371.89 340.65 371.89 346.95 368.25C353.25 364.61 353.24 358.73 346.95 355.09C340.66 351.45 330.45 351.46 324.15 355.09C317.85 358.72 317.86 364.62 324.16 368.25Z" fill="#37474F"/>
<path d="M349.14 361.11V333.94H321.94V361.11C321.83 363.2 323.14 365.32 325.94 366.91C331.25 369.98 339.87 369.98 345.19 366.91C347.94 365.32 349.26 363.2 349.14 361.11Z" fill="#EBEBEB"/>
<path d="M325.931 339.49C331.241 342.56 339.861 342.56 345.181 339.49C350.501 336.42 350.491 331.49 345.181 328.38C339.871 325.27 331.241 325.31 325.931 328.38C320.621 331.45 320.611 336.42 325.931 339.49Z" fill="#FAFAFA"/>
<path d="M326.52 339C331.52 341.81 339.6 341.81 344.59 339C349.58 336.19 349.59 331.61 344.59 328.79C339.59 325.97 331.51 325.98 326.52 328.79C321.53 331.6 321.53 336.22 326.52 339Z" fill="#EBEBEB"/>
<path d="M344.59 330.15C339.59 327.34 331.51 327.34 326.52 330.15C324.32 331.39 323.09 332.97 322.83 334.6C323.09 336.22 324.32 337.8 326.52 339.04C331.52 341.85 339.6 341.85 344.59 339.04C346.78 337.8 348.01 336.22 348.27 334.6C348 333 346.78 331.39 344.59 330.15Z" fill="#F5F5F5"/>
<path d="M321.94 356.52C321.94 358.52 323.25 360.57 325.94 362.11C331.25 365.18 339.87 365.18 345.19 362.11C347.84 360.58 349.19 358.57 349.19 356.56V338.36C349.19 340.36 347.86 342.36 345.19 343.92C339.87 346.99 331.25 346.99 325.94 343.92C323.26 342.38 321.94 340.35 321.94 338.32V356.52Z" fill="#59BF78"/>
<path opacity="0.3" d="M321.94 356.52C321.94 358.52 323.25 360.57 325.94 362.11C331.25 365.18 339.87 365.18 345.19 362.11C347.84 360.58 349.19 358.57 349.19 356.56V338.36C349.19 340.36 347.86 342.36 345.19 343.92C339.87 346.99 331.25 346.99 325.94 343.92C323.26 342.38 321.94 340.35 321.94 338.32V356.52Z" fill="black"/>
<path opacity="0.1" d="M341.13 368.52C336.13 369.81 330.04 369.29 325.93 366.91C323.16 365.32 321.85 363.21 321.93 361.1V333.93C321.93 335.93 323.26 337.93 325.93 339.49C327.651 340.478 329.539 341.139 331.5 341.44V364.44C331.5 366.68 334.83 369.39 341.13 368.52Z" fill="black"/>
<path d="M338.66 338.78L337.21 337.95C336.04 337.27 335.73 336.36 336.51 335.9C337.094 335.697 337.717 335.628 338.332 335.699C338.946 335.77 339.537 335.979 340.06 336.31L341.5 337.14C342.67 337.82 342.99 338.73 342.2 339.19C341.617 339.393 340.996 339.462 340.383 339.391C339.77 339.32 339.181 339.111 338.66 338.78Z" fill="#E0E0E0"/>
<path d="M337.151 337.16C337.39 337.283 337.656 337.347 337.926 337.347C338.195 337.347 338.461 337.283 338.701 337.16C339.131 336.92 339.131 336.52 338.701 336.27C338.461 336.147 338.195 336.083 337.926 336.083C337.656 336.083 337.39 336.147 337.151 336.27C336.721 336.52 336.721 336.92 337.151 337.16Z" fill="#F5F5F5"/>
<path d="M340 338.71C340.24 338.833 340.506 338.897 340.775 338.897C341.045 338.897 341.311 338.833 341.55 338.71C341.642 338.676 341.722 338.615 341.777 338.534C341.833 338.454 341.863 338.358 341.863 338.26C341.863 338.162 341.833 338.067 341.777 337.986C341.722 337.906 341.642 337.844 341.55 337.81C341.309 337.692 341.044 337.63 340.775 337.63C340.507 337.63 340.242 337.692 340 337.81C339.909 337.844 339.829 337.906 339.773 337.986C339.717 338.067 339.688 338.162 339.688 338.26C339.688 338.358 339.717 338.454 339.773 338.534C339.829 338.615 339.909 338.676 340 338.71Z" fill="#F5F5F5"/>
<path d="M304 379.9C310.3 383.53 320.5 383.53 326.8 379.9C333.1 376.27 333.09 370.37 326.8 366.74C320.51 363.11 310.3 363.11 304 366.74C297.7 370.37 297.69 376.27 304 379.9Z" fill="#37474F"/>
<path d="M329 372.75V345.58H301.77V372.75C301.66 374.85 302.97 376.96 305.77 378.56C311.08 381.63 319.7 381.63 325.01 378.56C327.77 377 329.08 374.85 329 372.75Z" fill="#EBEBEB"/>
<path d="M305.761 351.14C311.071 354.2 319.691 354.2 325.001 351.14C330.311 348.08 330.321 343.09 325.001 340.02C319.681 336.95 311.071 336.96 305.761 340.02C300.451 343.08 300.441 348.07 305.761 351.14Z" fill="#FAFAFA"/>
<path d="M306.35 350.68C311.35 353.5 319.43 353.5 324.42 350.68C329.41 347.86 329.42 343.3 324.42 340.48C319.42 337.66 311.34 337.66 306.35 340.48C301.36 343.3 301.36 347.86 306.35 350.68Z" fill="#EBEBEB"/>
<path d="M324.42 341.8C319.42 338.98 311.34 338.98 306.35 341.8C304.15 343.04 302.92 344.62 302.66 346.24C302.92 347.86 304.15 349.44 306.35 350.68C311.35 353.5 319.43 353.5 324.42 350.68C326.61 349.44 327.84 347.86 328.1 346.24C327.84 344.62 326.61 343 324.42 341.8Z" fill="#F5F5F5"/>
<path d="M301.771 368.16C301.771 370.16 303.081 372.16 305.771 373.76C311.081 376.83 319.701 376.83 325.011 373.76C327.671 372.22 329.011 370.21 329.011 368.2V350C329.011 352 327.681 354 325.011 355.56C319.701 358.62 311.081 358.62 305.771 355.56C303.091 354.01 301.771 351.98 301.771 349.96V368.16Z" fill="#59BF78"/>
<path opacity="0.3" d="M301.771 368.16C301.771 370.16 303.081 372.16 305.771 373.76C311.081 376.83 319.701 376.83 325.011 373.76C327.671 372.22 329.011 370.21 329.011 368.2V350C329.011 352 327.681 354 325.011 355.56C319.701 358.62 311.081 358.62 305.771 355.56C303.091 354.01 301.771 351.98 301.771 349.96V368.16Z" fill="black"/>
<path opacity="0.1" d="M321 380.17C316 381.46 309.91 380.94 305.8 378.56C303.03 376.97 301.72 374.85 301.8 372.75V345.58C301.8 347.58 303.13 349.58 305.8 351.14C307.521 352.126 309.409 352.784 311.37 353.08V376.08C311.33 378.33 314.66 381 321 380.17Z" fill="black"/>
<path d="M318.49 350.43L317.04 349.59C315.87 348.92 315.56 348 316.34 347.59C316.923 347.382 317.546 347.31 318.161 347.38C318.776 347.449 319.368 347.658 319.89 347.99L321.33 348.83C322.5 349.5 322.82 350.42 322.03 350.83C321.448 351.032 320.827 351.102 320.214 351.032C319.602 350.963 319.012 350.757 318.49 350.43Z" fill="#E0E0E0"/>
<path d="M317 348.81C317.24 348.933 317.506 348.997 317.775 348.997C318.045 348.997 318.311 348.933 318.55 348.81C318.642 348.776 318.722 348.715 318.777 348.634C318.833 348.554 318.863 348.458 318.863 348.36C318.863 348.262 318.833 348.167 318.777 348.086C318.722 348.006 318.642 347.944 318.55 347.91C318.309 347.792 318.044 347.73 317.775 347.73C317.507 347.73 317.242 347.792 317 347.91C316.909 347.944 316.829 348.006 316.773 348.086C316.717 348.167 316.688 348.262 316.688 348.36C316.688 348.458 316.717 348.554 316.773 348.634C316.829 348.715 316.909 348.776 317 348.81Z" fill="#F5F5F5"/>
<path d="M319.84 350.36C320.082 350.478 320.347 350.54 320.615 350.54C320.884 350.54 321.149 350.478 321.39 350.36C321.482 350.326 321.561 350.264 321.617 350.184C321.673 350.103 321.703 350.008 321.703 349.91C321.703 349.812 321.673 349.716 321.617 349.636C321.561 349.555 321.482 349.494 321.39 349.46C321.15 349.337 320.885 349.273 320.615 349.273C320.346 349.273 320.08 349.337 319.84 349.46C319.748 349.494 319.669 349.555 319.613 349.636C319.557 349.716 319.527 349.812 319.527 349.91C319.527 350.008 319.557 350.103 319.613 350.184C319.669 350.264 319.748 350.326 319.84 350.36Z" fill="#F5F5F5"/>
<path d="M295.21 394.27C304.113 394.27 311.33 390.102 311.33 384.96C311.33 379.818 304.113 375.65 295.21 375.65C286.307 375.65 279.09 379.818 279.09 384.96C279.09 390.102 286.307 394.27 295.21 394.27Z" fill="#37474F"/>
<path d="M308.8 384.4V357.23H281.6V384.4C281.49 386.49 282.8 388.61 285.6 390.21C290.91 393.27 299.53 393.27 304.84 390.21C307.6 388.61 308.91 386.49 308.8 384.4Z" fill="#EBEBEB"/>
<path d="M285.59 362.78C290.9 365.85 299.52 365.85 304.83 362.78C310.14 359.71 310.15 354.78 304.83 351.67C299.51 348.56 290.9 348.6 285.59 351.67C280.28 354.74 280.27 359.71 285.59 362.78Z" fill="#FAFAFA"/>
<path d="M286.18 362.33C291.18 365.15 299.26 365.15 304.25 362.33C309.24 359.51 309.25 354.94 304.25 352.12C299.25 349.3 291.17 349.31 286.18 352.12C281.19 354.93 281.19 359.51 286.18 362.33Z" fill="#EBEBEB"/>
<path d="M304.25 353.44C299.25 350.63 291.17 350.63 286.18 353.44C283.98 354.68 282.75 356.27 282.49 357.89C282.75 359.51 283.98 361.09 286.18 362.33C291.18 365.15 299.26 365.15 304.25 362.33C306.44 361.09 307.67 359.51 307.93 357.89C307.67 356.27 306.44 354.68 304.25 353.44Z" fill="#F5F5F5"/>
<path d="M281.601 379.81C281.601 381.81 282.911 383.86 285.601 385.4C290.911 388.47 299.531 388.47 304.841 385.4C307.501 383.87 308.841 381.86 308.841 379.85V361.65C308.841 363.65 307.511 365.65 304.841 367.21C299.531 370.28 290.911 370.28 285.601 367.21C282.921 365.67 281.601 363.64 281.601 361.61V379.81Z" fill="#59BF78"/>
<path opacity="0.3" d="M281.601 379.81C281.601 381.81 282.911 383.86 285.601 385.4C290.911 388.47 299.531 388.47 304.841 385.4C307.501 383.87 308.841 381.86 308.841 379.85V361.65C308.841 363.65 307.511 365.65 304.841 367.21C299.531 370.28 290.911 370.28 285.601 367.21C282.921 365.67 281.601 363.64 281.601 361.61V379.81Z" fill="black"/>
<path d="M298.32 362.07L296.87 361.24C295.7 360.56 295.39 359.65 296.17 359.19C296.754 358.987 297.377 358.918 297.992 358.989C298.607 359.06 299.197 359.269 299.72 359.6L301.16 360.43C302.33 361.11 302.65 362.02 301.86 362.48C301.277 362.683 300.656 362.752 300.043 362.681C299.43 362.61 298.841 362.401 298.32 362.07Z" fill="#E0E0E0"/>
<path d="M296.81 360.45C297.05 360.573 297.315 360.637 297.585 360.637C297.854 360.637 298.12 360.573 298.36 360.45C298.79 360.21 298.79 359.81 298.36 359.56C298.12 359.437 297.854 359.373 297.585 359.373C297.315 359.373 297.05 359.437 296.81 359.56C296.38 359.81 296.38 360.21 296.81 360.45Z" fill="#F5F5F5"/>
<path d="M299.67 362C299.91 362.123 300.176 362.187 300.445 362.187C300.715 362.187 300.98 362.123 301.22 362C301.65 361.75 301.65 361.35 301.22 361.11C300.98 360.987 300.715 360.923 300.445 360.923C300.176 360.923 299.91 360.987 299.67 361.11C299.24 361.35 299.24 361.75 299.67 362Z" fill="#F5F5F5"/>
<path opacity="0.1" d="M300.79 391.82C295.79 393.11 289.7 392.58 285.6 390.2C282.83 388.61 281.51 386.5 281.6 384.4V357.23C281.6 359.23 282.94 361.23 285.6 362.79C287.317 363.775 289.203 364.433 291.16 364.73V387.73C291.16 390 294.49 392.68 300.79 391.82Z" fill="black"/>
<path d="M263.64 403.19C269.94 406.82 280.14 406.82 286.44 403.19C292.74 399.56 292.73 393.66 286.44 390.03C280.15 386.4 269.94 386.4 263.64 390.03C257.34 393.66 257.35 399.56 263.64 403.19Z" fill="#37474F"/>
<path d="M288.63 396.05V368.87H261.43V396.05C261.32 398.14 262.63 400.25 265.43 401.85C270.74 404.92 279.36 404.92 284.67 401.85C287.43 400.25 288.74 398.14 288.63 396.05Z" fill="#EBEBEB"/>
<path d="M275.04 376.73C282.556 376.73 288.65 373.211 288.65 368.87C288.65 364.529 282.556 361.01 275.04 361.01C267.523 361.01 261.43 364.529 261.43 368.87C261.43 373.211 267.523 376.73 275.04 376.73Z" fill="#FAFAFA"/>
<path d="M266 374C271 376.82 279.08 376.82 284.07 374C289.06 371.18 289.07 366.62 284.07 363.8C279.07 360.98 271 361 266 363.77C261 366.54 261 371.16 266 374Z" fill="#EBEBEB"/>
<path d="M284.08 365.09C279.08 362.27 271 362.27 266.01 365.09C263.81 366.33 262.58 367.91 262.32 369.53C262.58 371.15 263.81 372.73 266.01 373.97C271.01 376.79 279.09 376.79 284.08 373.97C286.27 372.73 287.5 371.15 287.76 369.53C287.5 367.91 286.27 366.33 284.08 365.09Z" fill="#F5F5F5"/>
<path d="M261.43 391.45C261.43 393.45 262.74 395.5 265.43 397.05C270.74 400.12 279.36 400.12 284.67 397.05C287.33 395.51 288.67 393.5 288.67 391.49V373.3C288.67 375.3 287.34 377.3 284.67 378.86C279.36 381.92 270.74 381.92 265.43 378.86C262.75 377.31 261.43 375.28 261.43 373.26V391.45Z" fill="#59BF78"/>
<path opacity="0.3" d="M261.43 391.45C261.43 393.45 262.74 395.5 265.43 397.05C270.74 400.12 279.36 400.12 284.67 397.05C287.33 395.51 288.67 393.5 288.67 391.49V373.3C288.67 375.3 287.34 377.3 284.67 378.86C279.36 381.92 270.74 381.92 265.43 378.86C262.75 377.31 261.43 375.28 261.43 373.26V391.45Z" fill="black"/>
<path opacity="0.1" d="M280.61 403.46C275.61 404.75 269.53 404.23 265.42 401.85C262.65 400.26 261.34 398.14 261.42 396.04V368.87C261.42 370.87 262.75 372.87 265.42 374.43C267.14 375.419 269.029 376.077 270.99 376.37V399.37C271 401.62 274.32 404.33 280.61 403.46Z" fill="black"/>
<path d="M278.15 373.72L276.7 372.88C275.53 372.21 275.22 371.29 276 370.88C276.584 370.675 277.206 370.604 277.821 370.673C278.436 370.743 279.027 370.95 279.55 371.28L280.99 372.12C282.16 372.79 282.48 373.71 281.69 374.12C281.108 374.323 280.487 374.392 279.875 374.323C279.262 374.253 278.673 374.048 278.15 373.72Z" fill="#E0E0E0"/>
<path d="M277.411 372.28C278.018 372.28 278.511 371.998 278.511 371.65C278.511 371.302 278.018 371.02 277.411 371.02C276.803 371.02 276.311 371.302 276.311 371.65C276.311 371.998 276.803 372.28 277.411 372.28Z" fill="#F5F5F5"/>
<path d="M279.5 373.65C279.742 373.768 280.007 373.83 280.275 373.83C280.544 373.83 280.809 373.768 281.05 373.65C281.142 373.616 281.222 373.554 281.277 373.474C281.333 373.394 281.363 373.298 281.363 373.2C281.363 373.102 281.333 373.006 281.277 372.926C281.222 372.845 281.142 372.784 281.05 372.75C280.811 372.627 280.545 372.563 280.275 372.563C280.006 372.563 279.74 372.627 279.5 372.75C279.409 372.784 279.329 372.845 279.273 372.926C279.217 373.006 279.188 373.102 279.188 373.2C279.188 373.298 279.217 373.394 279.273 373.474C279.329 373.554 279.409 373.616 279.5 373.65Z" fill="#F5F5F5"/>
<path d="M344.15 379.81C350.45 383.45 360.65 383.45 366.95 379.81C373.25 376.17 373.24 370.29 366.95 366.65C360.66 363.01 350.45 363.02 344.15 366.65C337.85 370.28 337.86 376.18 344.15 379.81Z" fill="#37474F"/>
<path d="M369.14 372.67V345.49H341.94V372.67C341.83 374.76 343.14 376.87 345.94 378.47C351.25 381.54 359.87 381.54 365.18 378.47C367.94 376.87 369.25 374.76 369.14 372.67Z" fill="#EBEBEB"/>
<path d="M345.931 351.05C351.241 354.12 359.861 354.12 365.171 351.05C370.481 347.98 370.491 343 365.171 339.94C359.851 336.88 351.241 336.87 345.931 339.94C340.621 343.01 340.611 348 345.931 351.05Z" fill="#FAFAFA"/>
<path d="M346.51 350.59C351.51 353.41 359.59 353.41 364.58 350.59C369.57 347.77 369.58 343.21 364.58 340.39C359.58 337.57 351.5 337.57 346.51 340.39C341.52 343.21 341.52 347.78 346.51 350.59Z" fill="#EBEBEB"/>
<path d="M364.58 341.71C359.58 338.89 351.5 338.89 346.51 341.71C344.32 342.95 343.09 344.53 342.83 346.15C343.09 347.77 344.32 349.35 346.51 350.59C351.51 353.41 359.59 353.41 364.58 350.59C366.78 349.35 368.01 347.77 368.27 346.15C368 344.53 366.78 343 364.58 341.71Z" fill="#F5F5F5"/>
<path d="M341.94 368.07C341.94 370.07 343.25 372.13 345.94 373.67C351.25 376.74 359.87 376.74 365.18 373.67C367.84 372.14 369.18 370.13 369.18 368.11V349.92C369.18 351.92 367.85 353.92 365.18 355.48C359.87 358.55 351.25 358.55 345.94 355.48C343.26 353.93 341.94 351.9 341.94 349.88V368.07Z" fill="#59BF78"/>
<path opacity="0.3" d="M341.94 368.07C341.94 370.07 343.25 372.13 345.94 373.67C351.25 376.74 359.87 376.74 365.18 373.67C367.84 372.14 369.18 370.13 369.18 368.11V349.92C369.18 351.92 367.85 353.92 365.18 355.48C359.87 358.55 351.25 358.55 345.94 355.48C343.26 353.93 341.94 351.9 341.94 349.88V368.07Z" fill="black"/>
<path opacity="0.1" d="M361.12 380.08C356.12 381.37 350.03 380.85 345.93 378.47C343.16 376.88 341.85 374.76 341.93 372.66V345.49C341.93 347.49 343.26 349.49 345.93 351.05C347.649 352.042 349.538 352.703 351.5 353V376C351.5 378.24 354.83 381 361.12 380.08Z" fill="black"/>
<path d="M358.66 350.34L357.21 349.51C356.04 348.83 355.73 347.91 356.51 347.46C357.094 347.257 357.716 347.188 358.33 347.257C358.945 347.327 359.536 347.533 360.06 347.86L361.5 348.7C362.67 349.37 362.98 350.29 362.2 350.7C361.622 350.917 361.002 350.998 360.388 350.935C359.773 350.873 359.182 350.669 358.66 350.34Z" fill="#E0E0E0"/>
<path d="M357.14 348.72C357.382 348.843 357.649 348.907 357.92 348.907C358.191 348.907 358.458 348.843 358.7 348.72C358.793 348.688 358.874 348.628 358.931 348.548C358.988 348.468 359.019 348.373 359.019 348.275C359.019 348.176 358.988 348.081 358.931 348.001C358.874 347.921 358.793 347.861 358.7 347.83C358.458 347.707 358.191 347.643 357.92 347.643C357.649 347.643 357.382 347.707 357.14 347.83C357.047 347.861 356.966 347.921 356.909 348.001C356.852 348.081 356.821 348.176 356.821 348.275C356.821 348.373 356.852 348.468 356.909 348.548C356.966 348.628 357.047 348.688 357.14 348.72Z" fill="#F5F5F5"/>
<path d="M360 350.27C360.242 350.388 360.507 350.45 360.775 350.45C361.044 350.45 361.309 350.388 361.55 350.27C361.642 350.236 361.722 350.175 361.777 350.094C361.833 350.014 361.863 349.918 361.863 349.82C361.863 349.722 361.833 349.626 361.777 349.546C361.722 349.466 361.642 349.404 361.55 349.37C361.311 349.247 361.045 349.183 360.775 349.183C360.506 349.183 360.24 349.247 360 349.37C359.909 349.404 359.829 349.466 359.773 349.546C359.717 349.626 359.688 349.722 359.688 349.82C359.688 349.918 359.717 350.014 359.773 350.094C359.829 350.175 359.909 350.236 360 350.27Z" fill="#F5F5F5"/>
<path d="M335.38 394.19C344.283 394.19 351.5 390.022 351.5 384.88C351.5 379.738 344.283 375.57 335.38 375.57C326.477 375.57 319.26 379.738 319.26 384.88C319.26 390.022 326.477 394.19 335.38 394.19Z" fill="#37474F"/>
<path d="M349 384.31V357.14H321.77V384.31C321.66 386.41 322.97 388.52 325.77 390.12C331.08 393.19 339.7 393.19 345.01 390.12C347.77 388.52 349.08 386.41 349 384.31Z" fill="#EBEBEB"/>
<path d="M325.761 362.69C331.071 365.76 339.691 365.76 345.001 362.69C350.311 359.62 350.321 354.69 345.001 351.58C339.681 348.47 331.071 348.51 325.761 351.58C320.451 354.65 320.441 359.62 325.761 362.69Z" fill="#FAFAFA"/>
<path d="M326.34 362.24C331.34 365.06 339.42 365.06 344.41 362.24C349.4 359.42 349.41 354.85 344.41 352.04C339.41 349.23 331.33 349.22 326.34 352.04C321.35 354.86 321.35 359.42 326.34 362.24Z" fill="#EBEBEB"/>
<path d="M344.41 353.36C339.41 350.54 331.33 350.54 326.34 353.36C324.15 354.6 322.92 356.18 322.66 357.8C322.92 359.42 324.15 361 326.34 362.24C331.34 365.06 339.42 365.06 344.41 362.24C346.61 361 347.84 359.42 348.1 357.8C347.84 356.18 346.61 354.6 344.41 353.36Z" fill="#F5F5F5"/>
<path d="M321.771 379.72C321.771 381.72 323.081 383.72 325.771 385.32C331.081 388.38 339.701 388.38 345.011 385.32C347.671 383.78 349.011 381.77 349.011 379.76V361.57C349.011 363.57 347.681 365.57 345.011 367.12C339.701 370.19 331.081 370.19 325.771 367.12C323.091 365.58 321.771 363.55 321.771 361.53V379.72Z" fill="#59BF78"/>
<path opacity="0.3" d="M321.771 379.72C321.771 381.72 323.081 383.72 325.771 385.32C331.081 388.38 339.701 388.38 345.011 385.32C347.671 383.78 349.011 381.77 349.011 379.76V361.57C349.011 363.57 347.681 365.57 345.011 367.12C339.701 370.19 331.081 370.19 325.771 367.12C323.091 365.58 321.771 363.55 321.771 361.53V379.72Z" fill="black"/>
<path opacity="0.1" d="M341 391.73C336 393.02 329.91 392.49 325.81 390.11C323.04 388.52 321.73 386.41 321.81 384.31V357.14C321.81 359.14 323.14 361.14 325.81 362.7C327.532 363.684 329.42 364.341 331.38 364.64V387.64C331.33 389.89 334.66 392.59 341 391.73Z" fill="black"/>
<path d="M338.48 362L337.04 361.17C335.87 360.49 335.56 359.58 336.34 359.17C336.924 358.967 337.547 358.898 338.162 358.969C338.777 359.04 339.367 359.249 339.89 359.58L341.33 360.41C342.5 361.09 342.81 362 342.03 362.46C341.442 362.656 340.817 362.717 340.202 362.637C339.587 362.557 338.999 362.34 338.48 362Z" fill="#E0E0E0"/>
<path d="M337 360.37C337.242 360.488 337.507 360.55 337.775 360.55C338.044 360.55 338.309 360.488 338.55 360.37C338.642 360.336 338.722 360.275 338.777 360.194C338.833 360.114 338.863 360.018 338.863 359.92C338.863 359.822 338.833 359.726 338.777 359.646C338.722 359.566 338.642 359.504 338.55 359.47C338.311 359.347 338.045 359.283 337.775 359.283C337.506 359.283 337.24 359.347 337 359.47C336.909 359.504 336.829 359.566 336.773 359.646C336.717 359.726 336.688 359.822 336.688 359.92C336.688 360.018 336.717 360.114 336.773 360.194C336.829 360.275 336.909 360.336 337 360.37Z" fill="#F5F5F5"/>
<path d="M339.84 361.91C340.08 362.033 340.346 362.097 340.615 362.097C340.885 362.097 341.15 362.033 341.39 361.91C341.483 361.878 341.564 361.818 341.621 361.739C341.678 361.659 341.709 361.563 341.709 361.465C341.709 361.367 341.678 361.271 341.621 361.191C341.564 361.111 341.483 361.052 341.39 361.02C341.15 360.897 340.885 360.833 340.615 360.833C340.346 360.833 340.08 360.897 339.84 361.02C339.747 361.052 339.667 361.111 339.609 361.191C339.552 361.271 339.521 361.367 339.521 361.465C339.521 361.563 339.552 361.659 339.609 361.739C339.667 361.818 339.747 361.878 339.84 361.91Z" fill="#F5F5F5"/>
<path d="M303.81 403.1C310.11 406.74 320.31 406.74 326.61 403.1C332.91 399.46 332.9 393.58 326.61 389.94C320.32 386.3 310.11 386.31 303.81 389.94C297.51 393.57 297.52 399.47 303.81 403.1Z" fill="#37474F"/>
<path d="M328.8 396V368.78H301.6V396C301.49 398.09 302.8 400.2 305.6 401.8C310.91 404.87 319.53 404.87 324.84 401.8C327.6 400.16 328.91 398.05 328.8 396Z" fill="#EBEBEB"/>
<path d="M305.59 374.34C310.9 377.41 319.52 377.41 324.83 374.34C330.14 371.27 330.15 366.34 324.83 363.23C319.51 360.12 310.9 360.16 305.59 363.23C300.28 366.3 300.27 371.27 305.59 374.34Z" fill="#FAFAFA"/>
<path d="M306.17 373.89C311.17 376.7 319.25 376.7 324.24 373.89C329.23 371.08 329.24 366.5 324.24 363.68C319.24 360.86 311.16 360.86 306.17 363.68C301.18 366.5 301.18 371.07 306.17 373.89Z" fill="#EBEBEB"/>
<path d="M324.24 365C319.24 362.18 311.16 362.18 306.17 365C303.98 366.24 302.75 367.82 302.49 369.44C302.75 371.06 303.98 372.64 306.17 373.88C311.17 376.7 319.25 376.7 324.24 373.88C326.44 372.64 327.67 371.06 327.93 369.44C327.67 367.82 326.44 366.24 324.24 365Z" fill="#F5F5F5"/>
<path d="M301.601 391.36C301.601 393.36 302.911 395.42 305.601 396.96C310.911 400.03 319.531 400.03 324.841 396.96C327.501 395.43 328.841 393.42 328.841 391.41V373.21C328.841 375.21 327.511 377.21 324.841 378.77C319.531 381.84 310.911 381.84 305.601 378.77C302.921 377.22 301.601 375.2 301.601 373.17V391.36Z" fill="#59BF78"/>
<path opacity="0.3" d="M301.601 391.36C301.601 393.36 302.911 395.42 305.601 396.96C310.911 400.03 319.531 400.03 324.841 396.96C327.501 395.43 328.841 393.42 328.841 391.41V373.21C328.841 375.21 327.511 377.21 324.841 378.77C319.531 381.84 310.911 381.84 305.601 378.77C302.921 377.22 301.601 375.2 301.601 373.17V391.36Z" fill="black"/>
<path d="M318.31 373.63L316.87 372.8C315.7 372.12 315.39 371.2 316.17 370.75C316.754 370.547 317.376 370.478 317.99 370.547C318.605 370.616 319.196 370.822 319.72 371.15L321.16 371.99C322.33 372.66 322.64 373.58 321.86 373.99C321.28 374.203 320.659 374.282 320.043 374.219C319.428 374.157 318.836 373.955 318.31 373.63Z" fill="#E0E0E0"/>
<path d="M316.8 372C317.04 372.123 317.306 372.187 317.575 372.187C317.845 372.187 318.11 372.123 318.35 372C318.78 371.75 318.78 371.35 318.35 371.11C318.11 370.987 317.845 370.923 317.575 370.923C317.306 370.923 317.04 370.987 316.8 371.11C316.707 371.141 316.627 371.201 316.569 371.281C316.512 371.361 316.481 371.457 316.481 371.555C316.481 371.653 316.512 371.749 316.569 371.828C316.627 371.908 316.707 371.968 316.8 372Z" fill="#F5F5F5"/>
<path d="M319.67 373.56C319.91 373.683 320.176 373.747 320.445 373.747C320.715 373.747 320.981 373.683 321.22 373.56C321.312 373.526 321.391 373.464 321.447 373.384C321.503 373.303 321.533 373.208 321.533 373.11C321.533 373.012 321.503 372.916 321.447 372.836C321.391 372.755 321.312 372.694 321.22 372.66C320.979 372.541 320.714 372.48 320.445 372.48C320.177 372.48 319.912 372.541 319.67 372.66C319.579 372.694 319.499 372.755 319.443 372.836C319.387 372.916 319.357 373.012 319.357 373.11C319.357 373.208 319.387 373.303 319.443 373.384C319.499 373.464 319.579 373.526 319.67 373.56Z" fill="#F5F5F5"/>
<path opacity="0.1" d="M320.78 403.37C315.78 404.66 309.7 404.14 305.59 401.76C302.82 400.17 301.51 398.06 301.59 395.96V368.79C301.59 370.79 302.92 372.79 305.59 374.35C307.314 375.329 309.201 375.987 311.16 376.29V399.29C311.16 401.54 314.49 404.24 320.78 403.37Z" fill="black"/>
<path d="M283.64 414.75C289.94 418.38 300.14 418.38 306.44 414.75C312.74 411.12 312.73 405.22 306.44 401.59C300.15 397.96 289.94 397.95 283.64 401.59C277.34 405.23 277.35 411.11 283.64 414.75Z" fill="#37474F"/>
<path d="M308.63 407.6V380.43H281.43V407.6C281.32 409.7 282.63 411.81 285.43 413.41C290.74 416.48 299.36 416.48 304.67 413.41C307.43 411.81 308.74 409.7 308.63 407.6Z" fill="#EBEBEB"/>
<path d="M285.42 386C290.73 389.07 299.35 389.07 304.66 386C309.97 382.93 309.98 378 304.66 374.89C299.34 371.78 290.73 371.82 285.42 374.89C280.11 377.96 280.1 382.92 285.42 386Z" fill="#FAFAFA"/>
<path d="M286 385.53C291 388.35 299.08 388.35 304.07 385.53C309.06 382.71 309.07 378.14 304.07 375.33C299.07 372.52 290.99 372.51 286 375.33C281.01 378.15 281 382.71 286 385.53Z" fill="#EBEBEB"/>
<path d="M304.07 376.65C299.07 373.83 290.99 373.83 286 376.65C283.81 377.89 282.58 379.47 282.32 381.09C282.58 382.71 283.81 384.29 286 385.53C291 388.35 299.08 388.35 304.07 385.53C306.27 384.29 307.5 382.71 307.76 381.09C307.5 379.47 306.27 377.89 304.07 376.65Z" fill="#F5F5F5"/>
<path d="M281.43 403C281.43 405 282.74 407.05 285.43 408.6C290.74 411.66 299.36 411.66 304.67 408.6C307.33 407.06 308.67 405.05 308.67 403.04V384.86C308.67 386.86 307.34 388.86 304.67 390.41C299.36 393.48 290.74 393.48 285.43 390.41C282.75 388.87 281.43 386.84 281.43 384.82V403Z" fill="#59BF78"/>
<path opacity="0.3" d="M281.43 403C281.43 405 282.74 407.05 285.43 408.6C290.74 411.66 299.36 411.66 304.67 408.6C307.33 407.06 308.67 405.05 308.67 403.04V384.86C308.67 386.86 307.34 388.86 304.67 390.41C299.36 393.48 290.74 393.48 285.43 390.41C282.75 388.87 281.43 386.84 281.43 384.82V403Z" fill="black"/>
<path opacity="0.1" d="M300.61 415C295.61 416.29 289.52 415.76 285.42 413.38C282.65 411.79 281.34 409.68 281.42 407.58V380.43C281.42 382.43 282.75 384.43 285.42 385.99C287.142 386.974 289.03 387.631 290.99 387.93V410.93C291 413.18 294.32 415.88 300.61 415Z" fill="black"/>
<path d="M298.14 385.27L296.7 384.44C295.53 383.76 295.22 382.85 296 382.44C296.581 382.229 297.203 382.155 297.817 382.224C298.431 382.293 299.021 382.504 299.54 382.84L300.99 383.67C302.16 384.35 302.47 385.27 301.69 385.72C301.103 385.917 300.478 385.979 299.864 385.902C299.249 385.824 298.66 385.608 298.14 385.27Z" fill="#E0E0E0"/>
<path d="M297.411 383.84C298.018 383.84 298.511 383.558 298.511 383.21C298.511 382.862 298.018 382.58 297.411 382.58C296.803 382.58 296.311 382.862 296.311 383.21C296.311 383.558 296.803 383.84 297.411 383.84Z" fill="#F5F5F5"/>
<path d="M299.5 385.2C299.74 385.323 300.006 385.387 300.275 385.387C300.545 385.387 300.81 385.323 301.05 385.2C301.143 385.168 301.224 385.108 301.281 385.029C301.338 384.949 301.369 384.853 301.369 384.755C301.369 384.657 301.338 384.561 301.281 384.481C301.224 384.401 301.143 384.342 301.05 384.31C300.81 384.187 300.545 384.123 300.275 384.123C300.006 384.123 299.74 384.187 299.5 384.31C299.07 384.56 299.07 385 299.5 385.2Z" fill="#F5F5F5"/>
<path d="M35.23 403.36L103.82 363.76L190.06 413.55L121.47 453.15L35.23 403.36Z" fill="black"/>
<path d="M103.82 363.76V296.04L33.8398 336.45L92.3898 370.36L103.82 363.76Z" fill="#37474F"/>
<path d="M103.82 296.04V363.76L132.9 380.55L191.45 346.63L103.82 296.04Z" fill="#263238"/>
<path d="M33.8398 336.45V402.56L121.47 453.15V387.15L33.8398 336.45Z" fill="#263238"/>
<path d="M121.47 387.15V453.15L191.45 412.75V346.63L121.47 387.15Z" fill="#37474F"/>
<path d="M121.47 387.15L122.85 450.63L173.67 423.01L121.47 453.15V387.15Z" fill="#455A64"/>
<path d="M129.83 431.92C129.58 431.922 129.335 431.856 129.12 431.73C128.806 431.506 128.558 431.203 128.4 430.852C128.242 430.5 128.18 430.113 128.22 429.73V423.9V423.47L128.52 423.52L133.1 420.83V427.36C133.09 428.199 132.88 429.024 132.489 429.766C132.098 430.508 131.536 431.147 130.85 431.63C130.541 431.815 130.189 431.915 129.83 431.92ZM128.96 424.33V429.75C128.927 429.999 128.958 430.252 129.049 430.486C129.14 430.721 129.288 430.928 129.48 431.09C129.641 431.162 129.819 431.189 129.995 431.17C130.17 431.151 130.338 431.085 130.48 430.98C131.052 430.56 131.52 430.015 131.848 429.385C132.175 428.756 132.354 428.06 132.37 427.35V426.87H130.67L130.34 424.58L128.96 424.33ZM131.31 426.14H132.37V422.14L129.63 423.75L131 424L131.31 426.14Z" fill="#E0E0E0"/>
<path d="M130.66 436.58C130.562 436.58 130.468 436.541 130.398 436.472C130.329 436.402 130.29 436.308 130.29 436.21V431.3C130.293 431.203 130.332 431.11 130.401 431.041C130.47 430.973 130.563 430.933 130.66 430.93C130.758 430.93 130.852 430.969 130.922 431.039C130.991 431.108 131.03 431.202 131.03 431.3V436.21C131.031 436.259 131.023 436.308 131.005 436.353C130.987 436.399 130.959 436.44 130.925 436.475C130.89 436.51 130.849 436.537 130.803 436.555C130.758 436.573 130.709 436.582 130.66 436.58Z" fill="#E0E0E0"/>
<path d="M128.53 437.81C128.465 437.812 128.401 437.796 128.345 437.764C128.289 437.732 128.242 437.686 128.21 437.63C128.162 437.546 128.149 437.447 128.173 437.354C128.197 437.26 128.257 437.18 128.34 437.13L132.61 434.66C132.696 434.613 132.798 434.601 132.893 434.627C132.988 434.653 133.07 434.715 133.12 434.8C133.167 434.885 133.178 434.985 133.152 435.079C133.126 435.172 133.064 435.252 132.98 435.3L128.71 437.76C128.656 437.795 128.593 437.812 128.53 437.81Z" fill="#E0E0E0"/>
<path d="M143.74 429.35C143.6 429.353 143.462 429.318 143.34 429.25C143.197 429.154 143.081 429.022 143.004 428.868C142.927 428.714 142.891 428.542 142.9 428.37V427.37C142.891 427.317 142.894 427.263 142.908 427.211C142.922 427.159 142.948 427.111 142.982 427.07C143.017 427.029 143.06 426.997 143.109 426.974C143.158 426.951 143.211 426.94 143.265 426.94C143.318 426.94 143.371 426.951 143.42 426.974C143.469 426.997 143.512 427.029 143.547 427.07C143.582 427.111 143.607 427.159 143.621 427.211C143.636 427.263 143.638 427.317 143.63 427.37V428.37C143.625 428.413 143.628 428.456 143.64 428.497C143.652 428.539 143.672 428.577 143.7 428.61C143.7 428.61 143.82 428.61 143.94 428.55C144.168 428.34 144.348 428.083 144.467 427.796C144.586 427.51 144.642 427.201 144.63 426.89V420.36C144.621 420.307 144.624 420.253 144.638 420.201C144.652 420.149 144.678 420.101 144.712 420.06C144.747 420.019 144.79 419.987 144.839 419.964C144.888 419.941 144.941 419.93 144.995 419.93C145.048 419.93 145.101 419.941 145.15 419.964C145.199 419.987 145.242 420.019 145.277 420.06C145.312 420.101 145.337 420.149 145.351 420.201C145.365 420.253 145.368 420.307 145.36 420.36V426.89C145.382 427.323 145.303 427.756 145.129 428.153C144.956 428.55 144.692 428.902 144.36 429.18C144.174 429.297 143.959 429.357 143.74 429.35Z" fill="#E0E0E0"/>
<path d="M139.87 423.64V423C139.959 421.368 140.431 419.78 141.248 418.365C142.064 416.949 143.202 415.745 144.57 414.85C145.059 414.436 145.664 414.183 146.303 414.126C146.941 414.068 147.582 414.21 148.137 414.531C148.692 414.851 149.134 415.336 149.403 415.917C149.672 416.499 149.755 417.15 149.64 417.78V418L139.87 423.64ZM146.77 414.93C146.121 414.957 145.49 415.154 144.94 415.5C143.773 416.266 142.785 417.274 142.043 418.456C141.301 419.638 140.822 420.967 140.64 422.35L148.9 417.58C148.931 417.117 148.844 416.654 148.646 416.234C148.449 415.814 148.147 415.451 147.77 415.18C147.464 415.011 147.12 414.925 146.77 414.93Z" fill="#E0E0E0"/>
<path d="M156.94 421.83C156.844 421.827 156.752 421.787 156.685 421.718C156.618 421.649 156.58 421.556 156.58 421.46V409C156.571 408.947 156.574 408.893 156.589 408.841C156.603 408.789 156.628 408.741 156.663 408.7C156.698 408.659 156.741 408.626 156.79 408.604C156.838 408.581 156.891 408.569 156.945 408.569C156.999 408.569 157.052 408.581 157.101 408.604C157.149 408.626 157.193 408.659 157.227 408.7C157.262 408.741 157.288 408.789 157.302 408.841C157.316 408.893 157.319 408.947 157.31 409V421.51C157.298 421.599 157.254 421.681 157.186 421.74C157.118 421.799 157.03 421.831 156.94 421.83Z" fill="#E0E0E0"/>
<path d="M155.869 411.8C155.82 411.81 155.769 411.81 155.719 411.8C155.632 411.761 155.562 411.689 155.527 411.599C155.491 411.509 155.492 411.409 155.529 411.32L156.839 408.32L158.299 410C158.368 410.07 158.406 410.163 158.406 410.26C158.406 410.358 158.368 410.451 158.299 410.52C158.229 410.586 158.136 410.623 158.039 410.623C157.943 410.623 157.85 410.586 157.779 410.52L157.089 409.72L156.249 411.67C156.205 411.726 156.146 411.768 156.079 411.791C156.011 411.814 155.939 411.818 155.869 411.8Z" fill="#E0E0E0"/>
<path d="M160.34 419.89C160.243 419.887 160.152 419.847 160.084 419.778C160.017 419.709 159.98 419.616 159.98 419.52V407C159.971 406.947 159.974 406.893 159.988 406.841C160.002 406.789 160.028 406.741 160.062 406.7C160.097 406.659 160.14 406.626 160.189 406.604C160.238 406.581 160.291 406.569 160.345 406.569C160.398 406.569 160.451 406.581 160.5 406.604C160.549 406.626 160.592 406.659 160.627 406.7C160.662 406.741 160.687 406.789 160.701 406.841C160.716 406.893 160.718 406.947 160.71 407V419.51C160.711 419.559 160.702 419.609 160.684 419.655C160.666 419.701 160.639 419.743 160.605 419.778C160.57 419.814 160.529 419.842 160.484 419.861C160.438 419.88 160.389 419.89 160.34 419.89Z" fill="#E0E0E0"/>
<path d="M159.27 409.86C159.22 409.869 159.169 409.869 159.12 409.86C159.032 409.82 158.963 409.748 158.927 409.658C158.892 409.569 158.893 409.469 158.93 409.38L160.24 406.38L161.7 408C161.754 408.075 161.779 408.168 161.768 408.26C161.757 408.353 161.712 408.438 161.641 408.498C161.571 408.558 161.48 408.59 161.387 408.587C161.294 408.583 161.206 408.545 161.14 408.48L160.45 407.68L159.61 409.63C159.582 409.698 159.535 409.755 159.475 409.796C159.414 409.837 159.343 409.859 159.27 409.86Z" fill="#E0E0E0"/>
<path d="M48.83 383.38L67.93 394.38C68.1825 394.544 68.3928 394.766 68.544 395.026C68.6951 395.287 68.7828 395.579 68.8 395.88V409.15C68.8 410.25 68.02 410.69 67.08 410.15L48 399.14C47.7501 398.976 47.5421 398.756 47.3927 398.497C47.2434 398.239 47.1568 397.948 47.14 397.65V384.37C47.11 383.28 47.89 382.83 48.83 383.38Z" fill="#FAFAFA"/>
<path d="M48.3599 385.44L49.0099 385.82V397.54L48.3599 397.17V385.44Z" fill="#455A64"/>
<path d="M51 386.97L52.12 387.63V399.35L51 398.69V386.97Z" fill="#455A64"/>
<path d="M53.6499 388.5L54.2999 388.87V400.59L53.6499 400.22V388.5Z" fill="#455A64"/>
<path d="M55.6396 389.63L56.9496 390.4L56.9396 402.12L55.6396 401.35V389.63Z" fill="#455A64"/>
<path d="M58.9399 391.55L59.5899 391.93V403.65L58.9399 403.27V391.55Z" fill="#455A64"/>
<path d="M60.8398 392.63L62.2398 393.45V405.18L60.8398 404.35V392.63Z" fill="#455A64"/>
<path d="M64.23 394.61L64.88 394.98V406.7L64.23 406.33V394.61Z" fill="#455A64"/>
<path d="M65.7397 395.46L66.0697 395.65V407.37L65.7397 407.19V395.46Z" fill="#455A64"/>
<path d="M63.02 393.97L63.35 394.15V405.88L63.02 405.69V393.97Z" fill="#455A64"/>
<path d="M57.6997 390.85L58.0197 391.03V402.75L57.6997 402.57V390.85Z" fill="#455A64"/>
<path d="M54.7798 389.17L55.0998 389.36V401.08L54.7798 400.89V389.17Z" fill="#455A64"/>
<path d="M52.6797 388.01L53.0097 388.2V399.92L52.6797 399.73V388.01Z" fill="#455A64"/>
<path d="M49.8398 386.29L50.1598 386.48V398.2L49.8398 398.01V386.29Z" fill="#455A64"/>
<path d="M66.8799 396.13L67.5299 396.51V408.23L66.8799 407.85V396.13Z" fill="#455A64"/>
<path d="M103.82 296.04L33.8398 336.45L121.47 387.15L191.45 346.63L103.82 296.04Z" fill="#455A64"/>
<path opacity="0.1" d="M33.8398 336.45L121.47 384.64L191.45 346.63L121.47 387.15L33.8398 336.45Z" fill="white"/>
<path d="M62.8799 319.68L150.56 370.3L161.34 364.07L73.6599 313.45L62.8799 319.68Z" fill="#59BF78"/>
<path d="M161.34 364.06V377.76L160.04 377.02L158.68 379.36L157.33 378.56L155.97 380.93L154.62 380.13L153.26 382.46L151.91 381.69L150.56 384.03V370.3L161.34 364.06Z" fill="#59BF78"/>
<path opacity="0.25" d="M161.34 364.06V377.76L160.04 377.02L158.68 379.36L157.33 378.56L155.97 380.93L154.62 380.13L153.26 382.46L151.91 381.69L150.56 384.03V370.3L161.34 364.06Z" fill="black"/>
<path opacity="0.1" d="M100.43 300.43L39.3999 335.66L116.19 380.15L177.22 344.8L100.43 300.43Z" fill="black"/>
<path d="M51.0103 337.39L102.02 307.86L166.87 345.32L115.86 374.77L51.0103 337.39Z" fill="black"/>
<path d="M102.02 301.59V243.39L49.8101 273.53L100.36 302.75L102.02 301.59Z" fill="#37474F"/>
<path d="M102.021 243.39V301.59L117.681 310.65L168.061 281.47L102.021 243.39Z" fill="#263238"/>
<path d="M49.8101 273.53V336.7L115.86 374.77V311.7L49.8101 273.53Z" fill="#263238"/>
<path d="M115.86 311.7V374.77L168.06 344.63V281.47L115.86 311.7Z" fill="#37474F"/>
<path d="M115.86 311.7L117.05 372.6L160.78 348.83L115.86 374.77V311.7Z" fill="#455A64"/>
<path d="M123.06 356.5C122.843 356.503 122.629 356.448 122.44 356.34C122.174 356.147 121.962 355.888 121.827 355.588C121.692 355.288 121.638 354.958 121.67 354.63V349.63V349.26H121.92L125.92 346.95V352.57C125.912 353.292 125.732 354.002 125.394 354.64C125.057 355.278 124.572 355.827 123.98 356.24C123.703 356.408 123.385 356.498 123.06 356.5ZM122.3 350V354.66C122.274 354.877 122.302 355.096 122.382 355.299C122.462 355.502 122.593 355.681 122.76 355.82C122.898 355.879 123.048 355.901 123.197 355.885C123.346 355.87 123.488 355.816 123.61 355.73C124.103 355.368 124.507 354.897 124.789 354.355C125.072 353.812 125.226 353.212 125.24 352.6V352.19H123.78L123.49 350.19L122.3 350ZM124.3 351.55H125.22V348.08L122.86 349.46L124.03 349.67L124.3 351.55Z" fill="#E0E0E0"/>
<path d="M123.77 360.51C123.729 360.512 123.687 360.505 123.648 360.49C123.61 360.475 123.574 360.452 123.545 360.423C123.515 360.394 123.491 360.359 123.475 360.321C123.459 360.283 123.45 360.242 123.45 360.2V356C123.45 355.915 123.484 355.834 123.544 355.774C123.604 355.714 123.685 355.68 123.77 355.68C123.855 355.68 123.936 355.714 123.996 355.774C124.056 355.834 124.09 355.915 124.09 356V360.23C124.08 360.308 124.042 360.379 123.983 360.431C123.924 360.483 123.849 360.511 123.77 360.51Z" fill="#E0E0E0"/>
<path d="M121.931 361.57C121.875 361.571 121.821 361.556 121.773 361.528C121.725 361.5 121.686 361.459 121.661 361.41C121.639 361.375 121.625 361.335 121.619 361.295C121.613 361.254 121.615 361.212 121.625 361.172C121.635 361.132 121.653 361.094 121.678 361.061C121.703 361.028 121.735 361.001 121.771 360.98L125.451 358.86C125.522 358.834 125.6 358.834 125.671 358.861C125.742 358.887 125.801 358.938 125.839 359.004C125.876 359.07 125.888 359.147 125.874 359.221C125.86 359.296 125.82 359.363 125.761 359.41L122.091 361.53C122.042 361.559 121.987 361.573 121.931 361.57Z" fill="#E0E0E0"/>
<path d="M135 354.29C134.881 354.291 134.764 354.26 134.66 354.2C134.534 354.12 134.431 354.007 134.364 353.873C134.297 353.739 134.268 353.589 134.28 353.44V352.58C134.272 352.534 134.274 352.487 134.286 352.442C134.298 352.396 134.32 352.354 134.35 352.318C134.38 352.283 134.418 352.254 134.46 352.234C134.502 352.214 134.549 352.204 134.595 352.204C134.642 352.204 134.688 352.214 134.731 352.234C134.773 352.254 134.811 352.283 134.841 352.318C134.871 352.354 134.893 352.396 134.905 352.442C134.917 352.487 134.919 352.534 134.91 352.58V353.44C134.904 353.518 134.925 353.596 134.97 353.66C135.045 353.665 135.12 353.644 135.18 353.6C135.377 353.419 135.531 353.197 135.633 352.95C135.735 352.703 135.782 352.437 135.77 352.17V346.55C135.762 346.504 135.764 346.457 135.776 346.412C135.788 346.366 135.81 346.324 135.84 346.288C135.87 346.253 135.908 346.224 135.95 346.204C135.992 346.184 136.039 346.174 136.085 346.174C136.132 346.174 136.178 346.184 136.221 346.204C136.263 346.224 136.301 346.253 136.331 346.288C136.361 346.324 136.383 346.366 136.395 346.412C136.407 346.457 136.409 346.504 136.4 346.55V352.17C136.416 352.551 136.343 352.929 136.187 353.277C136.03 353.624 135.795 353.93 135.5 354.17C135.346 354.25 135.174 354.291 135 354.29Z" fill="#E0E0E0"/>
<path d="M131.69 349.38V348.83C131.773 347.428 132.182 346.065 132.885 344.849C133.588 343.634 134.566 342.6 135.74 341.83C136.162 341.477 136.682 341.262 137.229 341.215C137.777 341.167 138.326 341.289 138.802 341.564C139.278 341.839 139.658 342.254 139.89 342.753C140.123 343.251 140.196 343.809 140.1 344.35V344.53L131.69 349.38ZM137.63 341.88C137.07 341.902 136.525 342.071 136.05 342.37C135.047 343.031 134.197 343.899 133.559 344.917C132.92 345.935 132.508 347.079 132.35 348.27L139.46 344.16C139.485 343.76 139.406 343.36 139.231 342.999C139.056 342.638 138.79 342.328 138.46 342.1C138.208 341.954 137.922 341.878 137.63 341.88Z" fill="#E0E0E0"/>
<path d="M146.38 347.82C146.297 347.817 146.218 347.783 146.16 347.723C146.103 347.663 146.07 347.583 146.07 347.5V336.73C146.084 336.656 146.122 336.589 146.18 336.541C146.238 336.493 146.31 336.466 146.385 336.466C146.46 336.466 146.533 336.493 146.591 336.541C146.648 336.589 146.687 336.656 146.7 336.73V347.5C146.7 347.585 146.667 347.666 146.607 347.726C146.547 347.786 146.465 347.82 146.38 347.82Z" fill="#E0E0E0"/>
<path d="M145.46 339.19H145.34C145.301 339.176 145.265 339.154 145.235 339.125C145.204 339.096 145.18 339.061 145.164 339.022C145.148 338.984 145.141 338.942 145.142 338.901C145.143 338.859 145.152 338.818 145.17 338.78L146.3 336.17L147.55 337.63C147.579 337.659 147.602 337.693 147.618 337.731C147.634 337.769 147.642 337.809 147.642 337.85C147.642 337.891 147.634 337.931 147.618 337.969C147.602 338.007 147.579 338.041 147.55 338.07C147.489 338.127 147.409 338.159 147.325 338.159C147.242 338.159 147.161 338.127 147.1 338.07L146.51 337.38L145.78 339.06C145.746 339.111 145.697 339.15 145.64 339.174C145.583 339.197 145.52 339.202 145.46 339.19Z" fill="#E0E0E0"/>
<path d="M149.31 346.15C149.269 346.15 149.227 346.142 149.189 346.126C149.151 346.109 149.116 346.086 149.087 346.056C149.058 346.026 149.036 345.99 149.021 345.952C149.006 345.913 148.999 345.872 149 345.83V335.06C149.013 334.986 149.052 334.919 149.11 334.871C149.167 334.823 149.24 334.796 149.315 334.796C149.39 334.796 149.463 334.823 149.521 334.871C149.578 334.919 149.617 334.986 149.63 335.06V345.83C149.63 345.915 149.596 345.996 149.536 346.056C149.476 346.116 149.395 346.15 149.31 346.15Z" fill="#E0E0E0"/>
<path d="M148.39 337.52C148.347 337.53 148.303 337.53 148.26 337.52C148.222 337.504 148.188 337.48 148.16 337.451C148.132 337.421 148.109 337.387 148.094 337.349C148.08 337.31 148.072 337.27 148.073 337.229C148.074 337.188 148.083 337.148 148.1 337.11L149.22 334.51L150.48 335.96C150.509 335.989 150.532 336.023 150.548 336.061C150.563 336.099 150.571 336.139 150.571 336.18C150.571 336.221 150.563 336.262 150.548 336.299C150.532 336.337 150.509 336.371 150.48 336.4C150.419 336.457 150.338 336.489 150.255 336.489C150.171 336.489 150.091 336.457 150.03 336.4L149.43 335.71L148.71 337.39C148.674 337.439 148.625 337.478 148.568 337.5C148.512 337.523 148.45 337.53 148.39 337.52Z" fill="#E0E0E0"/>
<path d="M102.02 243.39L49.8101 273.53L115.86 311.7L168.06 281.47L102.02 243.39Z" fill="#455A64"/>
<path opacity="0.1" d="M49.8101 273.53L115.61 309.45L168.06 281.47L115.86 311.7L49.8101 273.53Z" fill="white"/>
<path d="M73.02 260.14L139.11 298.24L148.38 292.88L82.3 254.78L73.02 260.14Z" fill="#59BF78"/>
<path d="M148.38 292.87V304.66L147.26 304.02L146.1 306.03L144.93 305.35L143.77 307.38L142.6 306.69L141.44 308.71L140.27 308.04L139.1 310.06V298.24L148.38 292.87Z" fill="#59BF78"/>
<path opacity="0.25" d="M148.38 292.87V304.66L147.26 304.02L146.1 306.03L144.93 305.35L143.77 307.38L142.6 306.69L141.44 308.71L140.27 308.04L139.1 310.06V298.24L148.38 292.87Z" fill="black"/>
<path d="M60.5103 321.35L79.6103 332.35C79.8615 332.515 80.0703 332.737 80.2197 332.997C80.3692 333.258 80.455 333.55 80.4703 333.85V347.12C80.4703 348.22 79.6903 348.66 78.7403 348.12L59.6403 337.12C59.3904 336.956 59.1824 336.736 59.033 336.478C58.8837 336.219 58.7971 335.929 58.7803 335.63V322.34C58.7903 321.25 59.5603 320.8 60.5103 321.35Z" fill="#FAFAFA"/>
<path d="M60.04 323.41L60.69 323.79V335.51L60.04 335.13V323.41Z" fill="#455A64"/>
<path d="M62.6802 324.94L63.8002 325.6V337.32L62.6802 336.66V324.94Z" fill="#455A64"/>
<path d="M65.3301 326.47L65.9801 326.84V338.56L65.3301 338.19V326.47Z" fill="#455A64"/>
<path d="M67.3198 327.6L68.6198 328.37V340.09L67.3198 339.32V327.6Z" fill="#455A64"/>
<path d="M70.6201 329.52L71.2701 329.9V341.62L70.6201 341.24V329.52Z" fill="#455A64"/>
<path d="M72.52 330.6L73.91 331.42V343.14L72.52 342.32V330.6Z" fill="#455A64"/>
<path d="M75.9102 332.57L76.5602 332.95V344.67L75.9102 344.29V332.57Z" fill="#455A64"/>
<path d="M77.4199 333.43L77.7399 333.62V345.34L77.4199 345.15V333.43Z" fill="#455A64"/>
<path d="M74.7002 331.94L75.0302 332.12V343.84L74.7002 343.66V331.94Z" fill="#455A64"/>
<path d="M69.3801 328.81L69.7001 329V340.72L69.3701 340.54L69.3801 328.81Z" fill="#455A64"/>
<path d="M66.46 327.14L66.78 327.33V339.05L66.46 338.86V327.14Z" fill="#455A64"/>
<path d="M64.3599 325.98L64.6799 326.17V337.89L64.3599 337.7V325.98Z" fill="#455A64"/>
<path d="M61.52 324.26L61.84 324.44V336.16L61.52 335.98V324.26Z" fill="#455A64"/>
<path d="M78.5601 334.1L79.2101 334.48L79.2001 346.2L78.5601 345.82V334.1Z" fill="#455A64"/>
<path d="M197.17 159.81L43.6201 248.46V107.53L197.17 18.8804V159.81Z" fill="white"/>
<path d="M43.6099 249.51C43.4271 249.512 43.2472 249.463 43.0899 249.37C42.9257 249.283 42.7891 249.151 42.6954 248.991C42.6018 248.83 42.5549 248.646 42.5599 248.46V107.53C42.5603 107.345 42.6095 107.164 42.7026 107.004C42.7957 106.844 42.9293 106.712 43.0899 106.62L196.64 18.0001C196.8 17.9099 196.981 17.8629 197.165 17.8638C197.349 17.8647 197.53 17.9134 197.689 18.0052C197.848 18.097 197.981 18.2287 198.074 18.3874C198.167 18.5461 198.218 18.7262 198.22 18.9101V159.8C198.22 159.987 198.171 160.17 198.078 160.331C197.985 160.493 197.851 160.627 197.69 160.72L44.1399 249.37C43.9798 249.465 43.7962 249.514 43.6099 249.51ZM44.6699 108.14V246.63L196.11 159.19V20.7101L44.6699 108.14Z" fill="#E0E0E0"/>
<path d="M127.16 73.7603L123.69 75.7603V158.42L127.16 156.42V73.7603ZM61.9097 223.76L63.6397 222.76V110.38L61.8997 111.38L61.9097 223.76ZM70.6497 106.4L67.1797 108.4V191.06L70.6497 189.06V106.4ZM90.0797 193.58C89.591 193.201 88.9758 193.022 88.3597 193.08C87.6116 193.16 86.8907 193.406 86.2497 193.8C85.4917 194.208 84.8141 194.75 84.2497 195.4C83.9173 195.8 83.6068 196.217 83.3197 196.65L83.7897 188.56L90.2397 184.83C90.412 184.719 90.55 184.561 90.6383 184.376C90.7265 184.191 90.7617 183.984 90.7397 183.78V183.23C90.7397 182.72 90.5697 182.56 90.2397 182.75L82.9397 187C82.7744 187.125 82.6429 187.289 82.5573 187.478C82.4717 187.667 82.4347 187.874 82.4497 188.08L81.7697 199.78C81.758 199.864 81.7644 199.949 81.7886 200.031C81.8128 200.112 81.8541 200.187 81.9097 200.25C81.961 200.291 82.0244 200.313 82.0897 200.313C82.1551 200.313 82.2185 200.291 82.2697 200.25L82.6797 200.02C82.9509 199.847 83.1716 199.606 83.3197 199.32C83.4997 198.99 83.7197 198.63 83.9697 198.23C84.2464 197.804 84.5469 197.393 84.8697 197C85.2576 196.546 85.7253 196.166 86.2497 195.88C86.7207 195.583 87.2552 195.401 87.8097 195.35C88.2654 195.317 88.7174 195.452 89.0797 195.73C89.4877 196.066 89.787 196.515 89.9397 197.02C90.1691 197.741 90.2739 198.495 90.2497 199.25C90.256 200.176 90.152 201.099 89.9397 202C89.7506 202.829 89.4618 203.631 89.0797 204.39C88.7401 205.073 88.3131 205.708 87.8097 206.28C87.3664 206.798 86.8391 207.238 86.2497 207.58C85.8778 207.801 85.4725 207.96 85.0497 208.05C84.7023 208.136 84.3374 208.119 83.9997 208C83.6335 207.832 83.3267 207.556 83.1197 207.21C82.8331 206.711 82.6463 206.161 82.5697 205.59C82.5097 205.27 82.4297 205.1 82.3297 205.07C82.2798 205.046 82.2251 205.034 82.1697 205.034C82.1144 205.034 82.0597 205.046 82.0097 205.07L81.5797 205.32C81.4329 205.408 81.3147 205.537 81.2397 205.69C81.148 205.858 81.1096 206.05 81.1297 206.24C81.128 206.967 81.2568 207.689 81.5097 208.37C81.7075 208.937 82.0527 209.441 82.5097 209.83C82.9653 210.188 83.531 210.375 84.1097 210.36C84.8854 210.323 85.6374 210.082 86.2897 209.66C87.0781 209.196 87.7898 208.612 88.3997 207.93C89.093 207.183 89.6726 206.337 90.1197 205.42C90.6316 204.403 91.0209 203.329 91.2797 202.22C91.5765 200.979 91.7209 199.706 91.7097 198.43C91.7435 197.38 91.5981 196.332 91.2797 195.33C91.0613 194.641 90.6438 194.032 90.0797 193.58ZM77.3897 192.41C76.9628 191.917 76.3676 191.6 75.7197 191.52C74.8864 191.474 74.0607 191.702 73.3697 192.17C72.4505 192.697 71.6449 193.4 70.9997 194.24C70.3271 195.103 69.766 196.047 69.3297 197.05C68.4723 199.002 68.0198 201.108 67.9997 203.24C67.9935 204.147 68.101 205.051 68.3197 205.93C68.4888 206.667 68.8317 207.353 69.3197 207.93C69.7518 208.416 70.3451 208.728 70.9897 208.81C71.8224 208.85 72.646 208.623 73.3397 208.16C73.8817 207.836 74.3821 207.446 74.8297 207L71.2797 216.74C71.2453 216.807 71.2184 216.878 71.1997 216.95C71.1831 217.05 71.1831 217.151 71.1997 217.25C71.185 217.414 71.2313 217.578 71.3297 217.71C71.3503 217.732 71.3751 217.749 71.4026 217.761C71.4301 217.773 71.4598 217.779 71.4897 217.779C71.5197 217.779 71.5494 217.773 71.5769 217.761C71.6044 217.749 71.6292 217.732 71.6497 217.71L72.0997 217.45C72.3065 217.336 72.4659 217.151 72.5497 216.93C72.6397 216.71 72.7297 216.52 72.7997 216.36L77.4297 203.61C77.5697 203.25 77.7097 202.84 77.8597 202.36C78.0097 201.88 78.1497 201.36 78.2897 200.79C78.4297 200.22 78.5297 199.64 78.6197 199.01C78.7142 198.348 78.7609 197.679 78.7597 197.01C78.7671 196.106 78.6562 195.205 78.4297 194.33C78.2372 193.618 77.8811 192.961 77.3897 192.41ZM76.9897 200.52C76.7911 201.33 76.5027 202.115 76.1297 202.86C75.7921 203.542 75.3723 204.18 74.8797 204.76C74.4505 205.27 73.9404 205.706 73.3697 206.05C72.9172 206.328 72.4003 206.483 71.8697 206.5C71.415 206.499 70.9756 206.336 70.6297 206.04C70.2209 205.677 69.9229 205.205 69.7697 204.68C69.5435 203.949 69.4388 203.186 69.4597 202.42C69.4562 201.534 69.5603 200.651 69.7697 199.79C69.9622 198.969 70.2509 198.174 70.6297 197.42C70.9603 196.737 71.377 196.098 71.8697 195.52C72.2941 195.012 72.8013 194.58 73.3697 194.24C73.824 193.958 74.3453 193.803 74.8797 193.79C75.337 193.785 75.7808 193.945 76.1297 194.24C76.538 194.612 76.8356 195.09 76.9897 195.62C77.2158 196.355 77.3205 197.122 77.2997 197.89C77.306 198.776 77.2052 199.659 76.9997 200.52H76.9897ZM90.2697 178.13L91.9997 177.13V94.4603L90.2597 95.4603L90.2697 178.13ZM57.9997 226L59.7297 225V112.65L57.9897 113.65L57.9997 226ZM98.9097 90.0803L95.4397 92.0803V174.74L98.9097 172.74V90.0803ZM103.2 87.7203L101.46 88.7203V171.38L103.2 170.38V87.7203ZM76.8297 102.72L75.0897 103.72V186.39L76.8297 185.39V102.72ZM87.2897 96.8103L81.2897 100.2V182.86L87.2897 179.47V96.8103ZM166 51.2703L164.27 52.2703V134.93L166.01 133.93L166 51.2703ZM161.21 141.79L152.52 146.79C152.348 146.909 152.211 147.072 152.125 147.262C152.038 147.453 152.006 147.663 152.03 147.87V148.39C152.03 148.9 152.2 149.05 152.52 148.87L160.2 144.44L154.42 168.86C154.406 168.97 154.406 169.081 154.42 169.19C154.404 169.358 154.451 169.525 154.55 169.66C154.593 169.702 154.65 169.725 154.71 169.725C154.769 169.725 154.827 169.702 154.87 169.66L155.34 169.38C155.524 169.269 155.657 169.089 155.71 168.88C155.79 168.63 155.87 168.4 155.93 168.18L161.62 144.12C161.67 143.86 161.72 143.63 161.74 143.45C161.752 143.217 161.752 142.984 161.74 142.75V142.23C161.72 141.76 161.55 141.6 161.21 141.79ZM145.51 175.1L147.24 174.1V62.4703L145.51 63.4703V175.1ZM160 137.39L161.74 136.39V53.7303L160.01 54.7303L160 137.39ZM155.42 57.4403L151.95 59.4403V142.1L155.42 140.1V57.4403ZM173.21 157L165.68 161.35L170.94 150.07C171.681 148.628 172.3 147.126 172.79 145.58C173.191 144.23 173.393 142.829 173.39 141.42C173.398 140.587 173.315 139.755 173.14 138.94C173.015 138.288 172.726 137.679 172.3 137.17C172.114 136.96 171.889 136.789 171.636 136.667C171.384 136.546 171.11 136.475 170.83 136.46C170.053 136.467 169.296 136.7 168.65 137.13C167.789 137.624 167.037 138.288 166.44 139.08C165.826 139.881 165.318 140.759 164.93 141.69C164.534 142.603 164.236 143.555 164.04 144.53C163.86 145.4 163.753 146.283 163.72 147.17C163.72 147.62 163.88 147.74 164.2 147.56L164.65 147.3C164.777 147.206 164.88 147.082 164.95 146.94C165.068 146.714 165.14 146.465 165.16 146.21C165.261 144.749 165.62 143.317 166.22 141.98C166.719 140.825 167.569 139.856 168.65 139.21C169.73 138.58 170.55 138.54 171.12 139.1C171.803 139.996 172.111 141.122 171.98 142.24C171.981 142.748 171.951 143.256 171.89 143.76C171.823 144.282 171.712 144.797 171.56 145.3C171.384 145.903 171.17 146.494 170.92 147.07C170.65 147.71 170.31 148.45 169.92 149.3L164.09 161.63C163.919 161.952 163.772 162.287 163.65 162.63C163.575 162.87 163.534 163.119 163.53 163.37V163.89C163.53 164.4 163.7 164.56 164.03 164.37L173.24 159.05C173.417 158.938 173.56 158.778 173.652 158.589C173.744 158.4 173.781 158.189 173.76 157.98V157.47C173.73 157 173.56 156.82 173.21 157ZM103.94 177.37C103.761 177.074 103.522 176.82 103.237 176.623C102.953 176.426 102.63 176.293 102.29 176.23C101.385 176.154 100.483 176.398 99.7397 176.92C98.7449 177.488 97.877 178.254 97.1897 179.17C96.5 180.105 95.9447 181.132 95.5397 182.22C95.1114 183.374 94.8096 184.571 94.6397 185.79C94.4579 187.049 94.361 188.319 94.3497 189.59C94.3497 191.59 94.3497 193.53 94.3497 195.41C94.3506 196.567 94.4509 197.721 94.6497 198.86C94.7789 199.758 95.0848 200.621 95.5497 201.4C95.7267 201.696 95.9645 201.95 96.2472 202.147C96.5299 202.343 96.8512 202.477 97.1897 202.54C98.0944 202.617 98.997 202.372 99.7397 201.85C100.735 201.283 101.602 200.517 102.29 199.6C102.979 198.666 103.535 197.639 103.94 196.55C104.358 195.398 104.653 194.205 104.82 192.99C105.002 191.728 105.109 190.456 105.14 189.18C105.14 187.267 105.14 185.327 105.14 183.36C105.131 182.2 105.027 181.043 104.83 179.9C104.7 179.014 104.397 178.161 103.94 177.39V177.37ZM103.72 189.82C103.741 191.926 103.402 194.019 102.72 196.01C102.207 197.585 101.141 198.921 99.7197 199.77C98.3897 200.54 97.3997 200.43 96.7197 199.44C96.0397 198.45 95.7197 196.78 95.7197 194.44C95.7197 193.44 95.7197 192.55 95.7197 191.71C95.7197 190.87 95.7197 189.96 95.7197 188.98C95.7005 186.885 96.0387 184.802 96.7197 182.82C97.2284 181.236 98.2943 179.889 99.7197 179.03C101.04 178.27 102.03 178.39 102.72 179.4C103.488 180.95 103.833 182.675 103.72 184.4C103.72 185.36 103.72 186.26 103.72 187.1C103.75 187.92 103.74 188.84 103.72 189.84V189.82ZM170.82 131.19L174.29 129.19V46.5403L170.82 48.5403V131.19ZM179 43.8403V155.77L182.47 153.77V41.8403L179 43.8403ZM116.5 167.61L107.81 172.61C107.638 172.729 107.501 172.892 107.415 173.082C107.328 173.273 107.296 173.483 107.32 173.69V174.21C107.32 174.71 107.49 174.87 107.81 174.69L115.48 170.26L109.7 194.7C109.69 194.81 109.69 194.921 109.7 195.03C109.687 195.196 109.729 195.361 109.82 195.5C109.864 195.543 109.923 195.566 109.985 195.566C110.046 195.566 110.105 195.543 110.15 195.5L110.62 195.22C110.804 195.109 110.937 194.929 110.99 194.72L111.21 194.02L116.86 170C116.86 169.74 116.96 169.51 116.98 169.33C116.992 169.097 116.992 168.864 116.98 168.63V168.11C117 167.58 116.84 167.42 116.5 167.61ZM117.05 162.33L118.78 161.33V78.6703L117.05 79.6703V162.33ZM133.86 152.43L141.29 148.27V65.6003L133.86 69.7603V152.43ZM113 81.9203L106 85.8303V168.49L112.94 164.59L113 81.9203ZM136.81 155.92L136.38 156.16C136.278 156.219 136.181 156.286 136.09 156.36C135.974 156.474 135.873 156.602 135.79 156.74L131 165.13C130.89 165.321 130.822 165.532 130.8 165.75C130.784 165.928 130.822 166.105 130.91 166.26L131.16 166.6C131.36 166.88 131.59 166.79 131.86 166.34L135.86 159.24V179.87C135.86 180.38 136.03 180.54 136.36 180.35L136.79 180.1C136.953 179.992 137.085 179.843 137.171 179.667C137.257 179.491 137.294 179.296 137.28 179.1V156.34C137.34 155.83 137.18 155.67 136.85 155.87L136.81 155.92ZM128.46 182.92L121 187.19L126.26 175.91C127.001 174.468 127.62 172.966 128.11 171.42C128.511 170.07 128.713 168.669 128.71 167.26C128.72 166.426 128.633 165.594 128.45 164.78C128.334 164.127 128.048 163.517 127.62 163.01C127.434 162.8 127.209 162.629 126.956 162.507C126.704 162.386 126.43 162.315 126.15 162.3C125.373 162.303 124.614 162.536 123.97 162.97C123.109 163.464 122.357 164.128 121.76 164.92C121.146 165.721 120.638 166.599 120.25 167.53C119.854 168.443 119.556 169.395 119.36 170.37C119.162 171.235 119.042 172.115 119 173C119 173.45 119.16 173.57 119.48 173.39L119.92 173.13C120.05 173.037 120.157 172.913 120.23 172.77C120.348 172.544 120.42 172.295 120.44 172.04C120.536 170.578 120.895 169.145 121.5 167.81C121.999 166.655 122.849 165.686 123.93 165.04C125.01 164.41 125.83 164.37 126.4 164.93C126.97 165.49 127.25 166.52 127.25 168.07C127.254 168.578 127.228 169.086 127.17 169.59C127.103 170.112 126.992 170.627 126.84 171.13C126.659 171.732 126.446 172.323 126.2 172.9C125.93 173.54 125.59 174.28 125.2 175.13L119.37 187.45C119.197 187.771 119.05 188.106 118.93 188.45C118.854 188.69 118.814 188.939 118.81 189.19V189.71C118.81 190.22 118.97 190.38 119.31 190.19L128.52 184.87C128.697 184.758 128.84 184.598 128.932 184.409C129.024 184.22 129.061 184.009 129.04 183.8V183.29C129 182.8 128.85 182.64 128.5 182.84L128.46 182.92Z" fill="#455A64"/>
</g>
</svg>
