<svg width="49" height="48" viewBox="0 0 49 48" fill="none" xmlns="http://www.w3.org/2000/svg">
<rect x="0.5" width="48" height="48" rx="6" fill="white" fill-opacity="0.44"/>
<path d="M14.9814 18.3999V16.4399L24.5014 13.3599L34.0214 16.4399V18.3999L24.5014 15.3199L14.9814 18.3999Z" fill="#F15B6C"/>
<path d="M34.0212 18.6801C33.992 18.6801 33.9628 18.6757 33.9351 18.667L24.5012 15.6147L15.0672 18.667C14.9826 18.6932 14.8893 18.6786 14.8164 18.6261C14.7435 18.5736 14.7012 18.489 14.7012 18.4001V16.4401C14.7012 16.319 14.7799 16.2111 14.8951 16.1732L24.4151 13.0932C24.4705 13.0757 24.5318 13.0757 24.5872 13.0932L34.1072 16.1732C34.2224 16.2111 34.3012 16.319 34.3012 16.4401V18.4001C34.3012 18.489 34.2589 18.5736 34.186 18.6261C34.1378 18.6626 34.0795 18.6801 34.0212 18.6801ZM24.5012 15.0401C24.5303 15.0401 24.5595 15.0445 24.5872 15.0532L33.7412 18.0151V16.6442L24.5012 13.6547L15.2612 16.6442V18.0151L24.4151 15.0532C24.4428 15.0445 24.472 15.0401 24.5012 15.0401Z" fill="#1F212B"/>
<path d="M16.6607 21.7603H16.1007C15.637 21.7603 15.2607 22.1365 15.2607 22.6003V32.9603C15.2607 33.424 15.637 33.8003 16.1007 33.8003H23.1007C23.2407 34.2203 23.7278 34.6403 24.5007 34.6403C25.2737 34.6403 25.7607 34.2203 25.9007 33.8003H33.1807C33.6445 33.8003 34.0207 33.424 34.0207 32.9603V22.6003C34.0207 22.1365 33.6445 21.7603 33.1807 21.7603H32.6207" fill="#78A2D2"/>
<path d="M24.5014 34.92C23.7023 34.92 23.1569 34.5233 22.9192 34.08H16.1014C15.4831 34.08 14.9814 33.5783 14.9814 32.96V22.6C14.9814 21.9816 15.4831 21.48 16.1014 21.48H16.6614V22.04H16.1014C15.7923 22.04 15.5414 22.2908 15.5414 22.6V32.96C15.5414 33.2691 15.7923 33.52 16.1014 33.52H23.1014C23.2225 33.52 23.3289 33.5973 23.3669 33.711C23.4748 34.0348 23.8671 34.36 24.5014 34.36C25.1358 34.36 25.5281 34.0348 25.636 33.711C25.6739 33.5973 25.7804 33.52 25.9014 33.52H33.1814C33.4906 33.52 33.7414 33.2691 33.7414 32.96V22.6C33.7414 22.2908 33.4906 22.04 33.1814 22.04H32.6214V21.48H33.1814C33.7998 21.48 34.3014 21.9816 34.3014 22.6V32.96C34.3014 33.5783 33.7998 34.08 33.1814 34.08H26.0837C25.846 34.5233 25.3006 34.92 24.5014 34.92Z" fill="#1F212B"/>
<path d="M25.4815 32.8203C25.4815 33.2841 25.0425 33.6603 24.5015 33.6603C23.9604 33.6603 23.5215 33.2841 23.5215 32.8203" fill="#565FA1"/>
<path d="M24.5009 33.8002C23.8825 33.8002 23.3809 33.3612 23.3809 32.8202C23.3809 32.7429 23.4436 32.6802 23.5209 32.6802C23.5982 32.6802 23.6609 32.7429 23.6609 32.8202C23.6609 33.2066 24.0371 33.5202 24.5009 33.5202C24.9646 33.5202 25.3409 33.2066 25.3409 32.8202C25.3409 32.7429 25.4036 32.6802 25.4809 32.6802C25.5582 32.6802 25.6209 32.7429 25.6209 32.8202C25.6209 33.3612 25.1192 33.8002 24.5009 33.8002Z" fill="#1F212B"/>
<path d="M33.0412 32.8202H16.2412V22.7402L17.3612 20.2202C22.6812 20.2202 24.6412 21.6202 24.6412 21.6202C24.6412 21.6202 26.6012 20.2202 31.9212 20.2202L33.0412 22.7402V32.8202Z" fill="#FEFDEF"/>
<path d="M32.0306 31.3328C32.0043 31.2992 31.9635 31.2803 31.9212 31.2803C27.1423 31.2803 25.0656 32.3901 24.6412 32.6526C24.2168 32.3901 22.1402 31.2803 17.3612 31.2803C17.3189 31.2803 17.2781 31.2992 17.2518 31.3328L16.1318 32.7328L16.3506 32.9078L16.4206 32.8203H24.367C24.4939 32.8888 24.5566 32.9326 24.5595 32.934C24.5843 32.9515 24.612 32.9603 24.6412 32.9603C24.6704 32.9603 24.6981 32.9515 24.7229 32.934C24.7258 32.9326 24.7885 32.8888 24.9154 32.8203H32.8618L32.9318 32.9078L33.1506 32.7328L32.0306 31.3328Z" fill="#CECCBE"/>
<path d="M33.0406 32.9601H16.2406C16.1633 32.9601 16.1006 32.8974 16.1006 32.8201V22.7401C16.1006 22.7211 16.105 22.7007 16.1123 22.6832L17.2323 20.1632C17.2556 20.1122 17.3052 20.0801 17.3606 20.0801C22.1395 20.0801 24.2162 21.1899 24.6406 21.4524C25.065 21.1899 27.1416 20.0801 31.9206 20.0801C31.976 20.0801 32.0256 20.1122 32.0489 20.1632L33.1689 22.6832C33.1762 22.7007 33.1806 22.7211 33.1806 22.7401V32.8201C33.1806 32.8974 33.1179 32.9601 33.0406 32.9601ZM16.3806 32.6801H32.9006V22.7692L31.8302 20.3601C26.6983 20.3761 24.7412 21.7207 24.7223 21.7338C24.6727 21.7688 24.6085 21.7688 24.5589 21.7338C24.54 21.7207 22.5829 20.3761 17.451 20.3601L16.3806 22.7692V32.6801Z" fill="#1F212B"/>
<path d="M23.2402 30.9212C23.2256 30.9212 23.2096 30.9182 23.195 30.9139C21.9744 30.4997 20.4796 30.246 18.7529 30.1599C18.6756 30.1555 18.6173 30.0899 18.6202 30.0126C18.6246 29.9353 18.6946 29.8785 18.7675 29.8799C20.519 29.9689 22.0386 30.227 23.2854 30.6485C23.3583 30.6732 23.3977 30.752 23.3729 30.8264C23.3525 30.8847 23.2986 30.9212 23.2402 30.9212Z" fill="#1F212B"/>
<path d="M25.7618 31.0204C25.705 31.0204 25.6525 30.9854 25.6306 30.93C25.6043 30.8571 25.6408 30.7768 25.7123 30.7491C26.5989 30.4181 28.1506 29.9996 30.5145 29.88C30.5904 29.8727 30.6575 29.9354 30.6618 30.0127C30.6648 30.09 30.6064 30.1556 30.5291 30.16C28.2016 30.2766 26.6777 30.6879 25.81 31.0116C25.7939 31.0175 25.7779 31.0204 25.7618 31.0204Z" fill="#1F212B"/>
<path d="M25.7618 29.6203C25.705 29.6203 25.6525 29.5853 25.6306 29.5299C25.6043 29.457 25.6408 29.3768 25.7123 29.349C26.5989 29.018 28.1506 28.5995 30.5145 28.4799C30.5904 28.474 30.6575 28.5353 30.6618 28.6126C30.6648 28.6899 30.6064 28.7555 30.5291 28.7599C28.2016 28.8765 26.6777 29.2878 25.81 29.6115C25.7939 29.6174 25.7779 29.6203 25.7618 29.6203Z" fill="#1F212B"/>
<path d="M23.2402 28.1216C23.2256 28.1216 23.2096 28.1186 23.195 28.1143C21.9744 27.7001 20.4796 27.4463 18.7529 27.3603C18.6756 27.3559 18.6173 27.2903 18.6202 27.213C18.6246 27.1357 18.6946 27.0759 18.7675 27.0803C20.519 27.1693 22.0386 27.4274 23.2854 27.8488C23.3583 27.8736 23.3977 27.9524 23.3729 28.0268C23.3525 28.0851 23.2986 28.1216 23.2402 28.1216Z" fill="#1F212B"/>
<path d="M25.7618 28.2206C25.705 28.2206 25.6525 28.1856 25.6306 28.1302C25.6043 28.0573 25.6408 27.977 25.7123 27.9493C26.5989 27.6183 28.1506 27.1998 30.5145 27.0802C30.5904 27.0729 30.6575 27.1356 30.6618 27.2129C30.6648 27.2902 30.6064 27.3558 30.5291 27.3602C28.2016 27.4768 26.6777 27.8881 25.81 28.2118C25.7939 28.2177 25.7779 28.2206 25.7618 28.2206Z" fill="#1F212B"/>
<path d="M23.2402 26.7215C23.2256 26.7215 23.2096 26.7186 23.195 26.7142C21.9744 26.3001 20.4796 26.0463 18.7529 25.9603C18.6756 25.9559 18.6173 25.8903 18.6202 25.813C18.6246 25.7357 18.6946 25.6774 18.7675 25.6803C20.519 25.7692 22.0386 26.0274 23.2854 26.4488C23.3583 26.4736 23.3977 26.5524 23.3729 26.6267C23.3525 26.6851 23.2986 26.7215 23.2402 26.7215Z" fill="#1F212B"/>
<path d="M25.7618 25.4204C25.705 25.4204 25.6525 25.3854 25.6306 25.33C25.6043 25.2571 25.6408 25.1769 25.7123 25.1492C26.5989 24.8181 28.1506 24.3996 30.5145 24.28C30.5904 24.2756 30.6575 24.3354 30.6618 24.4127C30.6648 24.49 30.6064 24.5556 30.5291 24.56C28.2016 24.6767 26.6777 25.0879 25.81 25.4117C25.7939 25.4175 25.7779 25.4204 25.7618 25.4204Z" fill="#1F212B"/>
<path d="M23.2402 23.9212C23.2256 23.9212 23.2096 23.9183 23.195 23.9139C21.9744 23.4998 20.4796 23.246 18.7529 23.16C18.6756 23.1556 18.6173 23.09 18.6202 23.0127C18.6246 22.9354 18.6946 22.8771 18.7675 22.88C20.519 22.9689 22.0386 23.2271 23.2854 23.6485C23.3583 23.6733 23.3977 23.7521 23.3729 23.8264C23.3525 23.8848 23.2986 23.9212 23.2402 23.9212Z" fill="#1F212B"/>
<path d="M25.7618 22.6206C25.705 22.6206 25.6525 22.5856 25.6306 22.5302C25.6043 22.4573 25.6408 22.3771 25.7123 22.3494C26.5989 22.0183 28.1506 21.5998 30.5145 21.4802C30.5904 21.4758 30.6575 21.5356 30.6618 21.6129C30.6648 21.6902 30.6064 21.7558 30.5291 21.7602C28.2016 21.8769 26.6777 22.2881 25.81 22.6119C25.7939 22.6177 25.7779 22.6206 25.7618 22.6206Z" fill="#1F212B"/>
<path d="M24.641 32.9603H16.241C16.1871 32.9603 16.139 32.9296 16.1142 32.8815C16.0908 32.8319 16.0981 32.7751 16.1317 32.7328L17.2517 31.3328C17.2779 31.2992 17.3188 31.2803 17.361 31.2803C22.665 31.2803 24.641 32.6482 24.7227 32.7065C24.7723 32.7415 24.7927 32.8057 24.7752 32.8626C24.7563 32.9209 24.7023 32.9603 24.641 32.9603ZM16.5327 32.6803H24.0869C23.2352 32.2851 21.1746 31.569 17.4281 31.5603L16.5327 32.6803Z" fill="#1F212B"/>
<path d="M33.0418 32.9603C33.001 32.9603 32.9602 32.9428 32.9324 32.9078L31.8547 31.5603C28.8127 31.5676 26.8891 32.0342 25.8099 32.4265C25.737 32.4528 25.6568 32.4149 25.6306 32.3419C25.6043 32.2705 25.6408 32.1903 25.7137 32.1626C26.8235 31.7601 28.801 31.2803 31.9218 31.2803C31.9641 31.2803 32.0049 31.2992 32.0312 31.3328L33.1512 32.7328C33.1993 32.794 33.1891 32.8815 33.1293 32.9296C33.1031 32.9501 33.0724 32.9603 33.0418 32.9603Z" fill="#1F212B"/>
<path d="M17.2207 20.2202H17.5007V31.5602H17.2207V20.2202Z" fill="#1F212B"/>
<path d="M31.7803 20.2202H32.0603V31.5602H31.7803V20.2202Z" fill="#1F212B"/>
<path d="M24.641 29.88C24.5637 29.88 24.501 29.8173 24.501 29.74V21.62C24.501 21.5427 24.5637 21.48 24.641 21.48C24.7183 21.48 24.781 21.5427 24.781 21.62V29.74C24.781 29.8173 24.7183 29.88 24.641 29.88Z" fill="#1F212B"/>
<path d="M24.641 31.2799C24.5637 31.2799 24.501 31.2172 24.501 31.1399V30.5799C24.501 30.5026 24.5637 30.4399 24.641 30.4399C24.7183 30.4399 24.781 30.5026 24.781 30.5799V31.1399C24.781 31.2172 24.7183 31.2799 24.641 31.2799Z" fill="#1F212B"/>
<path d="M24.641 32.1201C24.5637 32.1201 24.501 32.0574 24.501 31.9801V31.7001C24.501 31.6228 24.5637 31.5601 24.641 31.5601C24.7183 31.5601 24.781 31.6228 24.781 31.7001V31.9801C24.781 32.0574 24.7183 32.1201 24.641 32.1201Z" fill="#1F212B"/>
<path d="M27.4419 26.3422C27.3778 26.3422 27.3194 26.2969 27.3048 26.2313C27.2888 26.1555 27.3369 26.0811 27.4128 26.0651C28.3475 25.8667 29.3903 25.7369 30.5146 25.6801C30.5905 25.6742 30.6575 25.7355 30.6619 25.8128C30.6663 25.8901 30.6065 25.9557 30.5292 25.9601C29.4194 26.0155 28.3913 26.1438 27.4711 26.3392C27.4609 26.3422 27.4521 26.3422 27.4419 26.3422Z" fill="#1F212B"/>
<path d="M25.7618 26.8207C25.705 26.8207 25.651 26.7857 25.6306 26.7303C25.6043 26.6574 25.6408 26.5772 25.7123 26.5495C25.8814 26.4868 26.071 26.4226 26.281 26.357C26.3539 26.3351 26.4327 26.3759 26.456 26.4503C26.4779 26.5232 26.437 26.602 26.3627 26.6253C26.1585 26.688 25.9748 26.7507 25.81 26.812C25.7939 26.8178 25.7779 26.8207 25.7618 26.8207Z" fill="#1F212B"/>
<path d="M29.4021 23.2431C29.3307 23.2431 29.2694 23.1906 29.2636 23.1177C29.2548 23.0404 29.3117 22.9718 29.389 22.9646C29.7667 22.9266 30.1357 22.8989 30.5148 22.88C30.5907 22.8727 30.6578 22.9354 30.6621 23.0127C30.665 23.09 30.6067 23.1556 30.5294 23.16C30.1532 23.1789 29.79 23.2052 29.4153 23.2431C29.4109 23.2431 29.4065 23.2431 29.4021 23.2431Z" fill="#1F212B"/>
<path d="M28.0009 23.4342C27.9338 23.4342 27.8755 23.3861 27.8638 23.3175C27.8492 23.2417 27.9003 23.1702 27.9761 23.1557C28.2459 23.109 28.5317 23.0652 28.8234 23.0288C28.9007 23.02 28.9707 23.0725 28.9794 23.1498C28.9897 23.2257 28.9357 23.2957 28.8584 23.3059C28.5711 23.3423 28.2911 23.3846 28.0257 23.4313C28.0169 23.4327 28.0082 23.4342 28.0009 23.4342Z" fill="#1F212B"/>
<path d="M25.7618 24.0206C25.705 24.0206 25.6525 23.9856 25.6306 23.9302C25.6043 23.8573 25.6408 23.7771 25.7123 23.7494C26.1381 23.5904 26.615 23.4489 27.1298 23.3294C27.2056 23.3119 27.28 23.3585 27.2989 23.4329C27.3164 23.5087 27.2698 23.5846 27.1939 23.6021C26.6893 23.7202 26.2241 23.8573 25.8114 24.0119C25.7939 24.0177 25.7779 24.0206 25.7618 24.0206Z" fill="#1F212B"/>
<path d="M23.2417 29.5211C23.2271 29.5211 23.211 29.5182 23.1964 29.5138C23.0302 29.4569 22.8421 29.4 22.6437 29.3446C22.5694 29.3242 22.5256 29.2469 22.546 29.1725C22.5679 29.0982 22.6452 29.0544 22.7196 29.0748C22.9237 29.1332 23.1162 29.19 23.2869 29.2484C23.3598 29.2732 23.3992 29.3519 23.3744 29.4263C23.3539 29.4846 23.3 29.5211 23.2417 29.5211Z" fill="#1F212B"/>
<path d="M21.5603 29.0869C21.5516 29.0869 21.5428 29.0854 21.5341 29.084C20.6824 28.9192 19.7462 28.8098 18.7531 28.7602C18.6758 28.7558 18.616 28.6902 18.6203 28.6129C18.6233 28.5356 18.6933 28.4758 18.7662 28.4802C19.7739 28.5312 20.7218 28.6421 21.5866 28.8098C21.6624 28.8244 21.712 28.8973 21.6974 28.9731C21.6843 29.0402 21.626 29.0869 21.5603 29.0869Z" fill="#1F212B"/>
<path d="M23.2415 25.3211C23.2269 25.3211 23.2109 25.3182 23.1963 25.3139C22.5517 25.0951 21.8065 24.9186 20.9796 24.7874C20.9038 24.7743 20.8513 24.7028 20.863 24.627C20.8761 24.5497 20.9461 24.4972 21.0234 24.5103C21.8663 24.6445 22.6275 24.8253 23.2867 25.0484C23.3596 25.0732 23.399 25.152 23.3742 25.2264C23.3538 25.2847 23.2998 25.3211 23.2415 25.3211Z" fill="#1F212B"/>
<path d="M20.1603 24.6736C20.1545 24.6736 20.1501 24.6736 20.1443 24.6722C19.6908 24.6211 19.2226 24.5832 18.7531 24.5599C18.6758 24.5555 18.616 24.4899 18.6203 24.4126C18.6233 24.3368 18.6889 24.277 18.7662 24.2799C19.2416 24.3047 19.7156 24.3426 20.1749 24.3951C20.2522 24.4024 20.3076 24.4724 20.2989 24.5497C20.2916 24.6211 20.2303 24.6736 20.1603 24.6736Z" fill="#1F212B"/>
<path d="M23.2413 22.5214C23.2268 22.5214 23.2107 22.5185 23.1961 22.5141C23.1101 22.4849 23.0153 22.4558 22.9205 22.4266C22.8461 22.4033 22.8053 22.3245 22.8272 22.2516C22.8505 22.1772 22.9278 22.1349 23.0022 22.1583C23.0999 22.1889 23.1976 22.2181 23.2866 22.2487C23.3595 22.2735 23.3988 22.3522 23.3741 22.4266C23.3536 22.4849 23.2997 22.5214 23.2413 22.5214Z" fill="#1F212B"/>
<path d="M21.0002 21.9892C20.9929 21.9892 20.9856 21.9877 20.9783 21.9877C20.2769 21.8754 19.5273 21.7996 18.7529 21.7602C18.6756 21.7558 18.6173 21.6902 18.6202 21.6129C18.6246 21.5356 18.6888 21.4758 18.7675 21.4802C19.5521 21.5196 20.3104 21.5969 21.0221 21.7106C21.0979 21.7223 21.1504 21.7937 21.1388 21.871C21.1271 21.9396 21.0673 21.9892 21.0002 21.9892Z" fill="#1F212B"/>
<path d="M22.4005 22.2734C22.3889 22.2734 22.3772 22.272 22.3655 22.269C22.1147 22.2049 21.8347 22.1422 21.5343 22.0838C21.4584 22.0693 21.4089 21.9963 21.4234 21.9205C21.438 21.8447 21.5109 21.7951 21.5868 21.8097C21.893 21.868 22.1789 21.9322 22.4355 21.9978C22.5099 22.0168 22.5551 22.0926 22.5362 22.1684C22.5201 22.2326 22.4632 22.2734 22.4005 22.2734Z" fill="#1F212B"/>
</svg>
