<svg width="406" height="489" viewBox="0 0 406 489" fill="none" xmlns="http://www.w3.org/2000/svg">
<g opacity="0.05">
<path d="M417.22 96.5599C408.33 81.4299 395.89 69.0499 380.16 58.9999C327.79 25.3699 256.61 13.2599 195.42 22.3999C151.71 28.9299 122.57 58.6399 103.92 97.3999C81.9199 143.15 61.9199 188.66 36.8199 233.09C7.99993 284 -4.87008 337 57.6699 381C111.79 419.08 179.67 409.2 241.67 408C262.23 407.6 282.94 408.28 303.17 412.26C343.37 420.16 382.41 448.26 421.95 422.02C452 402.07 469.7 364.38 478.28 330.24C483.39 309.9 487.41 287.45 485.51 265.85C483.44 242.19 472.51 224.37 461.3 204.22C447.156 178.819 436.149 151.794 428.52 123.74C425.984 114.216 422.183 105.075 417.22 96.5599Z" fill="#59BF78"/>
<path opacity="0.7" d="M417.22 96.5599C408.33 81.4299 395.89 69.0499 380.16 58.9999C327.79 25.3699 256.61 13.2599 195.42 22.3999C151.71 28.9299 122.57 58.6399 103.92 97.3999C81.9199 143.15 61.9199 188.66 36.8199 233.09C7.99993 284 -4.87008 337 57.6699 381C111.79 419.08 179.67 409.2 241.67 408C262.23 407.6 282.94 408.28 303.17 412.26C343.37 420.16 382.41 448.26 421.95 422.02C452 402.07 469.7 364.38 478.28 330.24C483.39 309.9 487.41 287.45 485.51 265.85C483.44 242.19 472.51 224.37 461.3 204.22C447.156 178.819 436.149 151.794 428.52 123.74C425.984 114.216 422.183 105.075 417.22 96.5599Z" fill="white"/>
<path d="M105.85 397.233L102.963 397.928L117.961 460.208L120.848 459.512L105.85 397.233Z" fill="#263238" stroke="#263238" stroke-linecap="round" stroke-linejoin="round"/>
<path d="M193.66 459.41H119.03V464.36H193.66V459.41Z" fill="#263238" stroke="#263238" stroke-linecap="round" stroke-linejoin="round"/>
<path d="M283.54 247.62C279.344 254.176 277.361 261.904 277.88 269.67C278.93 282.19 286.29 292.67 287.38 298.19C288.47 303.71 283.06 313.1 284.6 315.1C286.14 317.1 294 317 294 317C294 317 306.86 331 311.74 331.74C316.62 332.48 324.63 325.13 324.63 325.13L333.7 335.39L360.47 314.75C360.47 314.75 353.47 303.38 353.13 300.8C352.79 298.22 362.37 283.12 358.89 261.29C355.41 239.46 335 228.85 315.34 229C295.68 229.15 283.54 247.62 283.54 247.62Z" fill="white" stroke="#263238" stroke-linecap="round" stroke-linejoin="round"/>
<path d="M340.841 278.12C340.841 278.12 339.231 273.69 335.081 275.28C330.931 276.87 331.451 283.58 331.451 283.58C331.451 283.58 336.051 281.13 336.241 282.74C336.431 284.35 333.651 286.03 333.651 286.03" stroke="#263238" stroke-linecap="round" stroke-linejoin="round"/>
<path d="M324.62 325.16L334.75 317.89L328.91 329.41L324.62 325.16Z" fill="#263238" stroke="#263238" stroke-linecap="round" stroke-linejoin="round"/>
<path d="M358.881 261.32C355.411 239.49 335.001 228.85 315.341 229C295.681 229.15 283.541 247.62 283.541 247.62C280.739 251.986 278.898 256.898 278.141 262.03C278.501 261.7 278.921 261.29 279.431 260.76C283.701 256.33 287.271 248.42 297.041 249.87C306.811 251.32 300.411 264.8 302.801 270.19C305.191 275.58 316.851 274.62 318.671 275.27C320.491 275.92 323.391 285.61 326.911 282.14C330.431 278.67 329.651 272.22 333.801 270.42C337.951 268.62 345.871 272.9 346.691 279.78C347.511 286.66 337.891 297.41 337.891 297.41C337.891 297.41 345.841 301.7 353.571 302.26C353.361 301.804 353.21 301.324 353.121 300.83C352.811 298.25 362.361 283.15 358.881 261.32Z" fill="#263238" stroke="#263238" stroke-linecap="round" stroke-linejoin="round"/>
<path d="M353.73 251C353.73 251 355.58 237.26 368.05 235.77C380.52 234.28 390.93 255.77 387.65 264.84C384.37 273.91 373 280.58 366 280.54C359 280.5 354.86 260.49 353.73 251Z" fill="#263238" stroke="#263238" stroke-linecap="round" stroke-linejoin="round"/>
<path d="M299.58 316.37C299.58 316.37 306.94 315.93 309.36 306.92" stroke="#263238" stroke-linecap="round" stroke-linejoin="round"/>
<path d="M294.47 293.22C295.36 294.79 295.55 296.37 294.9 296.73C294.25 297.09 293.01 296.11 292.13 294.53C291.25 292.95 291.05 291.39 291.7 291.02C292.35 290.65 293.59 291.64 294.47 293.22Z" fill="#263238"/>
<path d="M300.921 289.53C303.251 295.04 302.461 300.63 299.161 302.03C295.861 303.43 291.291 300.1 288.961 294.59C286.631 289.08 287.421 283.49 290.721 282.09C294.021 280.69 298.591 284 300.921 289.53Z" stroke="#263238" stroke-linecap="round" stroke-linejoin="round"/>
<path d="M288.961 294.59L284.221 297.26" stroke="#263238" stroke-linecap="round" stroke-linejoin="round"/>
<path d="M300.12 287.95L329.63 275.71" stroke="#263238" stroke-linecap="round" stroke-linejoin="round"/>
<path d="M286 284.92C286 284.92 286.78 279.92 291.8 279.33" stroke="#263238" stroke-width="2" stroke-linecap="round" stroke-linejoin="round"/>
<path d="M305.13 418.12L294 436.81L202.15 445.55L174.71 439.19C172.873 439.489 171.012 439.623 169.15 439.59C165.57 439.59 145.29 453.11 145.69 454.3C146.09 455.49 147.28 457.09 150.46 454.3C153.64 451.51 155.63 451.12 155.63 451.12C155.63 451.12 147.28 458.68 150.46 458.68C153.64 458.68 159.21 454.68 159.21 454.68C159.21 454.68 154.83 459.45 157.21 459.45C159.59 459.45 168 454.3 168 454.3C168 454.3 176 455.1 183.51 456.3C191.02 457.5 201.4 456.7 201.4 456.7C201.4 456.7 286.5 464.38 290.87 464.25C295.24 464.12 319.5 436.82 319.5 436.82L305.13 418.12Z" fill="#263238" stroke="#263238" stroke-linecap="round" stroke-linejoin="round"/>
<path d="M331.45 344.47C331.45 344.47 324.96 335.37 327.56 331.91C330.16 328.45 357.01 311.55 362.64 312.42C368.27 313.29 371.3 329.74 371.3 329.74C371.3 329.74 388.62 342.3 389.92 365.25C391.22 388.2 381.69 431.09 380.39 441.05C379.09 451.01 379.09 475.26 379.09 475.26H317.16C317.16 475.26 315.43 439.75 315.43 436.26C315.43 432.77 299.84 423.72 301.14 412C302.44 400.28 331.89 347.47 331.89 347.47L331.45 344.47Z" fill="#263238" stroke="#263238" stroke-linecap="round" stroke-linejoin="round"/>
<path d="M364.37 349.23C360.523 349.2 356.714 349.996 353.201 351.567C349.688 353.137 346.554 355.443 344.01 358.33C334.92 368.33 301.14 436.28 301.14 436.28C301.14 436.28 215.38 448.84 207.59 447.11C199.8 445.38 188.1 442.35 186.8 441.91C185.5 441.47 171.32 443.67 166.55 444.97C161.78 446.27 150.2 454.8 151.11 455.9C152.02 457 156.77 454.98 156.77 454.98C156.77 454.98 153.67 456.98 155.67 457.36C157.67 457.74 162.07 455.9 162.07 455.9C162.07 455.9 159.14 458.64 161.7 458.64C164.26 458.64 170.28 455.9 170.28 455.9C170.28 455.9 167 459 168.82 459.18C170.64 459.36 179.6 453.71 180.33 453.34C181.06 452.97 185.81 455.17 192.56 456.45C197.698 457.225 202.902 457.47 208.09 457.18C208.09 457.18 287.16 464.12 295.19 464.12C303.22 464.12 307.06 464.12 307.79 463.57C308.52 463.02 371.34 391.98 375.36 386.87C379.38 381.76 379.93 381.02 379.93 381.02" fill="white"/>
<path d="M364.37 349.23C360.523 349.2 356.714 349.996 353.201 351.567C349.688 353.137 346.554 355.443 344.01 358.33C334.92 368.33 301.14 436.28 301.14 436.28C301.14 436.28 215.38 448.84 207.59 447.11C199.8 445.38 188.1 442.35 186.8 441.91C185.5 441.47 171.32 443.67 166.55 444.97C161.78 446.27 150.2 454.8 151.11 455.9C152.02 457 156.77 454.98 156.77 454.98C156.77 454.98 153.67 456.98 155.67 457.36C157.67 457.74 162.07 455.9 162.07 455.9C162.07 455.9 159.14 458.64 161.7 458.64C164.26 458.64 170.28 455.9 170.28 455.9C170.28 455.9 167 459 168.82 459.18C170.64 459.36 179.6 453.71 180.33 453.34C181.06 452.97 185.81 455.17 192.56 456.45C197.698 457.225 202.902 457.47 208.09 457.18C208.09 457.18 287.16 464.12 295.19 464.12C303.22 464.12 307.06 464.12 307.79 463.57C308.52 463.02 371.34 391.98 375.36 386.87C379.38 381.76 379.93 381.02 379.93 381.02" stroke="#263238" stroke-linecap="round" stroke-linejoin="round"/>
<path d="M364.37 349.23C360.543 349.323 356.772 350.174 353.277 351.737C349.781 353.299 346.631 355.54 344.01 358.33C340.77 361.87 334.4 372.79 327.54 385.33C334.27 386.65 347.43 391.02 359.18 405.49C367.68 395.8 374.18 388.36 375.36 386.83C379.36 381.72 380.89 379.83 380.89 379.83" fill="#263238"/>
<path d="M364.37 349.23C360.543 349.323 356.772 350.174 353.277 351.737C349.781 353.299 346.631 355.54 344.01 358.33C340.77 361.87 334.4 372.79 327.54 385.33C334.27 386.65 347.43 391.02 359.18 405.49C367.68 395.8 374.18 388.36 375.36 386.83C379.36 381.72 380.89 379.83 380.89 379.83" stroke="#263238" stroke-linecap="round" stroke-linejoin="round"/>
<path d="M170.28 455.9L180.79 448.77" stroke="#263238" stroke-linecap="round" stroke-linejoin="round"/>
<path d="M162.07 455.9C162.07 455.9 175.07 447.44 175.85 446.9" stroke="#263238" stroke-linecap="round" stroke-linejoin="round"/>
<path d="M156.771 455C156.771 455 165.221 448.22 170.921 446.13" stroke="#263238" stroke-linecap="round" stroke-linejoin="round"/>
<path d="M408.05 401.84C406.472 401.832 404.935 402.34 403.671 403.286C402.408 404.232 401.488 405.564 401.05 407.08L381.2 475.26H396.33L415 411.13C415.313 410.05 415.37 408.912 415.169 407.806C414.967 406.7 414.511 405.655 413.838 404.755C413.164 403.855 412.291 403.123 411.287 402.617C410.282 402.111 409.175 401.845 408.05 401.84Z" fill="#59BF78" stroke="#263238" stroke-linecap="round" stroke-linejoin="round"/>
<path d="M292.69 464.58H53.46V475.26H292.69V464.58Z" fill="#59BF78" stroke="#263238" stroke-linecap="round" stroke-linejoin="round"/>
<path d="M46.1797 475.26H447.83" stroke="#263238" stroke-linecap="round" stroke-linejoin="round"/>
</g>
</svg>
