<svg width="21" height="21" viewBox="0 0 21 21" fill="none" xmlns="http://www.w3.org/2000/svg">
<path d="M18.9946 16.4043H7.77051" stroke="#666666" stroke-width="1.72667" stroke-miterlimit="10" stroke-linecap="round"/>
<path d="M4.31656 16.4043H1.72656" stroke="#666666" stroke-width="1.72667" stroke-miterlimit="10" stroke-linecap="round"/>
<path d="M6.0441 14.6758V18.1299C6.0441 18.6068 5.65691 18.994 5.18004 18.994H4.31598C3.8391 18.994 3.4541 18.6068 3.4541 18.1299V14.6758C3.4541 14.199 3.8391 13.814 4.31598 13.814H5.18004C5.65691 13.814 6.0441 14.199 6.0441 14.6758Z" fill="#666666"/>
<path d="M18.995 4.31641H12.0869" stroke="#666666" stroke-width="1.72667" stroke-miterlimit="10" stroke-linecap="round"/>
<path d="M8.63469 4.31641H1.72656" stroke="#666666" stroke-width="1.72667" stroke-miterlimit="10" stroke-linecap="round"/>
<path d="M10.3605 2.59014V6.0442C10.3605 6.52107 9.97332 6.90608 9.49645 6.90608H8.63457C8.1577 6.90608 7.77051 6.52107 7.77051 6.0442V2.59014C7.77051 2.11326 8.1577 1.72607 8.63457 1.72607H9.49645C9.97332 1.72607 10.3605 2.11326 10.3605 2.59014Z" fill="#666666"/>
<path d="M18.9953 10.3604H16.4053" stroke="#666666" stroke-width="1.72667" stroke-miterlimit="10" stroke-linecap="round"/>
<path d="M12.9506 10.3604H1.72656" stroke="#666666" stroke-width="1.72667" stroke-miterlimit="10" stroke-linecap="round"/>
<path d="M14.6769 8.63408V12.086C14.6769 12.5628 14.2919 12.95 13.815 12.95H12.951C12.4741 12.95 12.0869 12.5628 12.0869 12.086V8.63408C12.0869 8.15721 12.4741 7.77002 12.951 7.77002H13.815C14.2919 7.77002 14.6769 8.15721 14.6769 8.63408Z" fill="#666666"/>
</svg>
