<svg width="18" height="18" viewBox="0 0 18 18" fill="none" xmlns="http://www.w3.org/2000/svg">
<path d="M8.23831 2.24219C7.8594 2.24219 7.51565 2.47266 7.37112 2.82812C7.22659 3.17969 7.31253 3.58594 7.58597 3.85156L12.7344 9L7.58597 14.1484C7.21878 14.5156 7.21878 15.1094 7.58597 15.4766C7.95315 15.8437 8.5469 15.8437 8.91409 15.4766L14.7266 9.66406C14.9024 9.48828 15 9.25 15 9C15 8.75 14.9024 8.51172 14.7266 8.33594L8.91409 2.52344C8.73831 2.34375 8.49222 2.24219 8.23831 2.24219Z" fill="#1F212B" fill-opacity="0.35"/>
<path d="M3.93655 2.25C3.55765 2.25 3.2139 2.48047 3.06937 2.83594C2.92483 3.1875 3.01077 3.59375 3.28421 3.85937L8.43265 9.00781L3.28421 14.1562C2.91702 14.5234 2.91702 15.1172 3.28421 15.4844C3.6514 15.8516 4.24515 15.8516 4.61233 15.4844L10.4248 9.67187C10.6006 9.49609 10.6983 9.25781 10.6983 9.00781C10.6983 8.75781 10.6006 8.51953 10.4248 8.34375L4.61233 2.53125C4.43655 2.35156 4.19046 2.25 3.93655 2.25Z" fill="#1F212B" fill-opacity="0.35"/>
</svg>
