<svg width="24" height="24" viewBox="0 0 24 24" fill="none" xmlns="http://www.w3.org/2000/svg">
<g clip-path="url(#clip0_32_17609)">
<path d="M17.9847 5.98975C17.4795 5.98975 17.0212 6.29704 16.8285 6.771C16.6357 7.23975 16.7503 7.78141 17.1149 8.13558L19.7295 10.7502H1.25033C0.7972 10.745 0.380534 10.9793 0.151367 11.37C-0.0725911 11.7606 -0.0725911 12.2397 0.151367 12.6304C0.380534 13.021 0.7972 13.2554 1.25033 13.2502H19.7295L17.1149 15.8647C16.6253 16.3543 16.6253 17.146 17.1149 17.6356C17.6045 18.1252 18.3962 18.1252 18.8857 17.6356L23.6357 12.8856C23.8701 12.6512 24.0003 12.3335 24.0003 12.0002C24.0003 11.6668 23.8701 11.3491 23.6357 11.1147L18.8857 6.36475C18.6514 6.12516 18.3232 5.98975 17.9847 5.98975Z" fill="#263238"/>
</g>
<defs>
<clipPath id="clip0_32_17609">
<rect width="24" height="24" fill="white"/>
</clipPath>
</defs>
</svg>
