<svg width="48" height="48" viewBox="0 0 48 48" fill="none" xmlns="http://www.w3.org/2000/svg">
<rect width="48" height="48" rx="6" fill="white"/>
<path d="M24.4335 29.7401H17.9585C17.6596 29.7401 17.416 29.4966 17.416 29.1976V29.1626C17.416 28.8637 17.661 28.6201 17.9585 28.6201H24.4335C24.7325 28.6201 24.976 28.8637 24.976 29.1626V29.1976C24.976 29.4966 24.7325 29.7401 24.4335 29.7401Z" fill="#F15B6C"/>
<path d="M24.4339 29.88H17.9589C17.5826 29.88 17.2764 29.5737 17.2764 29.1975V29.1625C17.2764 28.7862 17.5826 28.48 17.9589 28.48H24.4339C24.8101 28.48 25.1164 28.7862 25.1164 29.1625V29.1975C25.1164 29.5737 24.8101 29.88 24.4339 29.88ZM17.9589 28.76C17.7372 28.76 17.5564 28.9408 17.5564 29.1625V29.1975C17.5564 29.4191 17.7372 29.6 17.9589 29.6H24.4339C24.6555 29.6 24.8364 29.4191 24.8364 29.1975V29.1625C24.8364 28.9408 24.6555 28.76 24.4339 28.76H17.9589Z" fill="#1F212B"/>
<path d="M26.6224 32.1201H15.6426L16.1953 29.6001H26.0697L26.6224 32.1201Z" fill="#D8955F"/>
<path d="M26.6224 32.3998H15.6426C15.5566 32.3998 15.4778 32.3619 15.4239 32.2948C15.3714 32.2292 15.3509 32.1432 15.3684 32.06L15.9211 29.54C15.9489 29.4117 16.0626 29.3198 16.1939 29.3198H26.0697C26.2009 29.3198 26.3147 29.4117 26.3424 29.54L26.8951 32.06C26.9141 32.1432 26.8936 32.2292 26.8411 32.2948C26.7872 32.3619 26.707 32.3998 26.6224 32.3998ZM15.9897 31.8398H26.2739L25.8451 29.8798H16.4199L15.9897 31.8398Z" fill="#1F212B"/>
<path d="M24.4161 31.28H23.2961C23.2188 31.28 23.1561 31.2173 23.1561 31.14C23.1561 31.0627 23.2188 31 23.2961 31H24.4161C24.4934 31 24.5561 31.0627 24.5561 31.14C24.5561 31.2173 24.4934 31.28 24.4161 31.28ZM22.4561 31.28H22.1761C22.0988 31.28 22.0361 31.2173 22.0361 31.14C22.0361 31.0627 22.0988 31 22.1761 31H22.4561C22.5334 31 22.5961 31.0627 22.5961 31.14C22.5961 31.2173 22.5334 31.28 22.4561 31.28Z" fill="#1F212B"/>
<path d="M21.6157 31.28H15.7357C15.6584 31.28 15.5957 31.2173 15.5957 31.14C15.5957 31.0627 15.6584 31 15.7357 31H21.6157C21.693 31 21.7557 31.0627 21.7557 31.14C21.7557 31.2173 21.693 31.28 21.6157 31.28Z" fill="#1F212B"/>
<path d="M32.2343 29.4408C31.9689 29.7063 31.5343 29.7063 31.2689 29.4408L23.7205 21.8925C23.4551 21.6271 23.4551 21.1925 23.7205 20.9271C23.986 20.6617 24.4205 20.6617 24.686 20.9271L32.2343 28.4754C32.4997 28.7408 32.4997 29.1754 32.2343 29.4408Z" fill="#E08E4B"/>
<path d="M31.7512 29.7807C31.5412 29.7807 31.3298 29.7005 31.1693 29.5401L23.621 21.9918C23.4664 21.8372 23.3818 21.6301 23.3818 21.4099C23.3818 21.1897 23.4664 20.9841 23.621 20.8295C23.9418 20.5087 24.4639 20.5087 24.7848 20.8295L32.3331 28.3778C32.4877 28.5324 32.5723 28.738 32.5723 28.9582C32.5723 29.1785 32.4877 29.3855 32.3331 29.5401C32.1727 29.7005 31.9612 29.7807 31.7512 29.7807ZM24.2029 20.8674C24.0643 20.8674 23.9243 20.9214 23.8193 21.0264C23.7173 21.1285 23.6618 21.2655 23.6618 21.4099C23.6618 21.5557 23.7173 21.6914 23.8193 21.7935L31.3677 29.3418C31.5791 29.5532 31.9233 29.5532 32.1348 29.3418C32.2368 29.2397 32.2923 29.1041 32.2923 28.9582C32.2923 28.8124 32.2368 28.6768 32.1348 28.5747L24.5864 21.0264C24.4814 20.9214 24.3414 20.8674 24.2029 20.8674Z" fill="#1F212B"/>
<path d="M27.1753 19.9646L22.758 24.3819C22.3658 24.7727 21.7255 24.7727 21.3347 24.3819L19.713 22.7602C19.3222 22.3694 19.3222 21.7292 19.713 21.3383L24.1318 16.9196C24.5226 16.5288 25.1628 16.5288 25.5537 16.9196L27.1753 18.5413C27.5662 18.9335 27.5662 19.5723 27.1753 19.9646Z" fill="#FCBA7F"/>
<path d="M22.0466 24.9567C21.717 24.9567 21.3874 24.8313 21.1366 24.5804L19.5149 22.9588C19.0133 22.4571 19.0133 21.6419 19.5149 21.1402L23.9337 16.7229C24.1758 16.4794 24.498 16.3467 24.8437 16.3467C25.1878 16.3467 25.5101 16.4794 25.7522 16.7229L27.3739 18.3431C27.8755 18.8448 27.8755 19.6615 27.3739 20.1617L22.9551 24.5804C22.7043 24.8313 22.3762 24.9567 22.0466 24.9567ZM24.8437 16.9067C24.6483 16.9067 24.466 16.9825 24.3303 17.1181L19.9116 21.5369C19.6287 21.8198 19.6287 22.2806 19.9116 22.5636L21.5333 24.1852C21.8162 24.4681 22.277 24.4681 22.5599 24.1852L26.9772 19.7665C27.2601 19.4836 27.2601 19.0227 26.9772 18.7398L25.3555 17.1181C25.2199 16.9825 25.0376 16.9067 24.8437 16.9067Z" fill="#1F212B"/>
<path d="M22.8873 25.1433C22.4717 25.5589 21.7921 25.5589 21.3779 25.1433L18.9512 22.7181C18.5371 22.3024 18.5371 21.6229 18.9512 21.2087C19.3669 20.7931 20.0465 20.7931 20.4621 21.2087L22.8873 23.6339C23.3029 24.0481 23.3029 24.7277 22.8873 25.1433Z" fill="#D8955F"/>
<path d="M22.1317 25.7354C21.7876 25.7354 21.4419 25.6042 21.1794 25.3417L18.7542 22.9165C18.2278 22.3915 18.2278 21.5354 18.7542 21.0104C19.2792 20.4854 20.1338 20.4854 20.6588 21.0104L23.0855 23.4357C23.6105 23.9607 23.6105 24.8167 23.0855 25.3417C22.8215 25.6042 22.4773 25.7354 22.1317 25.7354ZM19.7065 21.1767C19.5053 21.1767 19.3026 21.2525 19.1494 21.4071C18.8432 21.7134 18.8432 22.2136 19.1494 22.5198L21.5746 24.945C21.8823 25.2527 22.3811 25.2527 22.6888 24.945C22.9965 24.6388 22.9965 24.1386 22.6888 23.8323L20.2636 21.4071C20.1105 21.2525 19.9078 21.1767 19.7065 21.1767Z" fill="#1F212B"/>
<path d="M27.9361 20.0944C27.5205 20.5101 26.8409 20.5101 26.4253 20.0944L24.0001 17.6692C23.5859 17.2536 23.5859 16.574 24.0001 16.1599C24.4157 15.7442 25.0953 15.7442 25.5109 16.1599L27.9361 18.5851C28.3503 18.9992 28.3503 19.6788 27.9361 20.0944Z" fill="#D8955F"/>
<path d="M27.1805 20.6867C26.8364 20.6867 26.4908 20.5554 26.2283 20.2929L23.803 17.8677C23.2766 17.3413 23.2766 16.4867 23.803 15.9617C24.328 15.4367 25.1826 15.4352 25.7076 15.9617L28.1328 18.3869C28.6593 18.9119 28.6593 19.7679 28.1328 20.2929C27.8703 20.5554 27.5262 20.6867 27.1805 20.6867ZM24.7553 16.1279C24.5541 16.1279 24.3528 16.2038 24.1983 16.3569C23.892 16.6646 23.892 17.1648 24.1983 17.4711L26.6235 19.8963C26.9312 20.204 27.4314 20.2025 27.7376 19.8963C28.0453 19.59 28.0453 19.0898 27.7376 18.7821L25.3124 16.3569C25.1593 16.2038 24.9566 16.1279 24.7553 16.1279Z" fill="#1F212B"/>
<path d="M23.502 18.7675L23.8447 18.4263L23.502 18.7675Z" fill="white"/>
<path d="M23.5019 18.9075C23.4669 18.9075 23.4305 18.8944 23.4028 18.8667C23.3488 18.8127 23.3488 18.7238 23.4028 18.6683L23.7455 18.3271C23.7994 18.2731 23.8884 18.2731 23.9424 18.3271C23.9978 18.3825 23.9978 18.47 23.9424 18.5254L23.6011 18.8667C23.5749 18.8944 23.5384 18.9075 23.5019 18.9075Z" fill="#1F212B"/>
<path d="M21.4814 20.7886L23.0156 19.2544L21.4814 20.7886Z" fill="white"/>
<path d="M21.4815 20.9287C21.4451 20.9287 21.4086 20.9141 21.3824 20.8878C21.327 20.8324 21.327 20.7435 21.3824 20.6895L22.9165 19.1553C22.9705 19.0999 23.0595 19.0999 23.1149 19.1553C23.1688 19.2093 23.1688 19.2982 23.1149 19.3537L21.5793 20.8878C21.553 20.9141 21.5165 20.9287 21.4815 20.9287Z" fill="#1F212B"/>
</svg>
