<svg width="20" height="21" viewBox="0 0 20 21" fill="none" xmlns="http://www.w3.org/2000/svg">
<path d="M15.6927 10.4974C15.6927 11.0911 15.2969 11.487 14.7031 11.487H10.8542V15.3359C10.8542 15.9245 10.4635 16.3203 9.86979 16.3203C9.27604 16.3203 8.88021 15.9245 8.88021 15.3359V11.487H5.03646C4.44271 11.487 4.04688 11.0911 4.04688 10.4974C4.04688 9.90886 4.44271 9.51302 5.03646 9.51302H8.88021V5.66406C8.88021 5.07031 9.27604 4.67969 9.86979 4.67969C10.4635 4.67969 10.8542 5.07031 10.8542 5.66406V9.51302H14.7031C15.2969 9.51302 15.6927 9.90886 15.6927 10.4974ZM19.7344 10.4974C19.7344 15.9245 15.2969 20.3672 9.86979 20.3672C4.44271 20.3672 0 15.9245 0 10.4974C0 5.07031 4.44271 0.632812 9.86979 0.632812C15.2969 0.632812 19.7344 5.07031 19.7344 10.4974ZM17.7604 10.4974C17.7604 6.15886 14.2083 2.60677 9.86979 2.60677C5.52604 2.60677 1.97396 6.15886 1.97396 10.4974C1.97396 14.8411 5.52604 18.3932 9.86979 18.3932C14.2083 18.3932 17.7604 14.8411 17.7604 10.4974Z" fill="#666666"/>
</svg>
