<svg width="49" height="48" viewBox="0 0 49 48" fill="none" xmlns="http://www.w3.org/2000/svg">
<rect x="0.5" width="48" height="48" rx="6" fill="white"/>
<path d="M24.9335 29.7401H18.4585C18.1596 29.7401 17.916 29.4966 17.916 29.1976V29.1626C17.916 28.8637 18.161 28.6201 18.4585 28.6201H24.9335C25.2325 28.6201 25.476 28.8637 25.476 29.1626V29.1976C25.476 29.4966 25.2325 29.7401 24.9335 29.7401Z" fill="#F15B6C"/>
<path d="M24.9339 29.88H18.4589C18.0826 29.88 17.7764 29.5737 17.7764 29.1975V29.1625C17.7764 28.7862 18.0826 28.48 18.4589 28.48H24.9339C25.3101 28.48 25.6164 28.7862 25.6164 29.1625V29.1975C25.6164 29.5737 25.3101 29.88 24.9339 29.88ZM18.4589 28.76C18.2372 28.76 18.0564 28.9408 18.0564 29.1625V29.1975C18.0564 29.4191 18.2372 29.6 18.4589 29.6H24.9339C25.1555 29.6 25.3364 29.4191 25.3364 29.1975V29.1625C25.3364 28.9408 25.1555 28.76 24.9339 28.76H18.4589Z" fill="#1F212B"/>
<path d="M27.1224 32.1201H16.1426L16.6953 29.6001H26.5697L27.1224 32.1201Z" fill="#D8955F"/>
<path d="M27.1224 32.3998H16.1426C16.0566 32.3998 15.9778 32.3619 15.9239 32.2948C15.8714 32.2292 15.8509 32.1432 15.8684 32.06L16.4211 29.54C16.4489 29.4117 16.5626 29.3198 16.6939 29.3198H26.5697C26.7009 29.3198 26.8147 29.4117 26.8424 29.54L27.3951 32.06C27.4141 32.1432 27.3936 32.2292 27.3411 32.2948C27.2872 32.3619 27.207 32.3998 27.1224 32.3998ZM16.4897 31.8398H26.7739L26.3451 29.8798H16.9199L16.4897 31.8398Z" fill="#1F212B"/>
<path d="M24.9161 31.28H23.7961C23.7188 31.28 23.6561 31.2173 23.6561 31.14C23.6561 31.0627 23.7188 31 23.7961 31H24.9161C24.9934 31 25.0561 31.0627 25.0561 31.14C25.0561 31.2173 24.9934 31.28 24.9161 31.28ZM22.9561 31.28H22.6761C22.5988 31.28 22.5361 31.2173 22.5361 31.14C22.5361 31.0627 22.5988 31 22.6761 31H22.9561C23.0334 31 23.0961 31.0627 23.0961 31.14C23.0961 31.2173 23.0334 31.28 22.9561 31.28Z" fill="#1F212B"/>
<path d="M22.1157 31.28H16.2357C16.1584 31.28 16.0957 31.2173 16.0957 31.14C16.0957 31.0627 16.1584 31 16.2357 31H22.1157C22.193 31 22.2557 31.0627 22.2557 31.14C22.2557 31.2173 22.193 31.28 22.1157 31.28Z" fill="#1F212B"/>
<path d="M32.7343 29.4408C32.4689 29.7063 32.0343 29.7063 31.7689 29.4408L24.2205 21.8925C23.9551 21.6271 23.9551 21.1925 24.2205 20.9271C24.486 20.6617 24.9205 20.6617 25.186 20.9271L32.7343 28.4754C32.9997 28.7408 32.9997 29.1754 32.7343 29.4408Z" fill="#E08E4B"/>
<path d="M32.2512 29.7807C32.0412 29.7807 31.8298 29.7005 31.6693 29.5401L24.121 21.9918C23.9664 21.8372 23.8818 21.6301 23.8818 21.4099C23.8818 21.1897 23.9664 20.9841 24.121 20.8295C24.4418 20.5087 24.9639 20.5087 25.2848 20.8295L32.8331 28.3778C32.9877 28.5324 33.0723 28.738 33.0723 28.9582C33.0723 29.1785 32.9877 29.3855 32.8331 29.5401C32.6727 29.7005 32.4612 29.7807 32.2512 29.7807ZM24.7029 20.8674C24.5643 20.8674 24.4243 20.9214 24.3193 21.0264C24.2173 21.1285 24.1618 21.2655 24.1618 21.4099C24.1618 21.5557 24.2173 21.6914 24.3193 21.7935L31.8677 29.3418C32.0791 29.5532 32.4233 29.5532 32.6348 29.3418C32.7368 29.2397 32.7923 29.1041 32.7923 28.9582C32.7923 28.8124 32.7368 28.6768 32.6348 28.5747L25.0864 21.0264C24.9814 20.9214 24.8414 20.8674 24.7029 20.8674Z" fill="#1F212B"/>
<path d="M27.6753 19.9646L23.258 24.3819C22.8658 24.7727 22.2255 24.7727 21.8347 24.3819L20.213 22.7602C19.8222 22.3694 19.8222 21.7292 20.213 21.3383L24.6318 16.9196C25.0226 16.5288 25.6628 16.5288 26.0537 16.9196L27.6753 18.5413C28.0662 18.9335 28.0662 19.5723 27.6753 19.9646Z" fill="#FCBA7F"/>
<path d="M22.5466 24.9567C22.217 24.9567 21.8874 24.8313 21.6366 24.5804L20.0149 22.9588C19.5133 22.4571 19.5133 21.6419 20.0149 21.1402L24.4337 16.7229C24.6758 16.4794 24.998 16.3467 25.3437 16.3467C25.6878 16.3467 26.0101 16.4794 26.2522 16.7229L27.8739 18.3431C28.3755 18.8448 28.3755 19.6615 27.8739 20.1617L23.4551 24.5804C23.2043 24.8313 22.8762 24.9567 22.5466 24.9567ZM25.3437 16.9067C25.1483 16.9067 24.966 16.9825 24.8303 17.1181L20.4116 21.5369C20.1287 21.8198 20.1287 22.2806 20.4116 22.5636L22.0333 24.1852C22.3162 24.4681 22.777 24.4681 23.0599 24.1852L27.4772 19.7665C27.7601 19.4836 27.7601 19.0227 27.4772 18.7398L25.8555 17.1181C25.7199 16.9825 25.5376 16.9067 25.3437 16.9067Z" fill="#1F212B"/>
<path d="M23.3873 25.1433C22.9717 25.5589 22.2921 25.5589 21.8779 25.1433L19.4512 22.7181C19.0371 22.3024 19.0371 21.6229 19.4512 21.2087C19.8669 20.7931 20.5465 20.7931 20.9621 21.2087L23.3873 23.6339C23.8029 24.0481 23.8029 24.7277 23.3873 25.1433Z" fill="#D8955F"/>
<path d="M22.6317 25.7354C22.2876 25.7354 21.9419 25.6042 21.6794 25.3417L19.2542 22.9165C18.7278 22.3915 18.7278 21.5354 19.2542 21.0104C19.7792 20.4854 20.6338 20.4854 21.1588 21.0104L23.5855 23.4357C24.1105 23.9607 24.1105 24.8167 23.5855 25.3417C23.3215 25.6042 22.9773 25.7354 22.6317 25.7354ZM20.2065 21.1767C20.0053 21.1767 19.8026 21.2525 19.6494 21.4071C19.3432 21.7134 19.3432 22.2136 19.6494 22.5198L22.0746 24.945C22.3823 25.2527 22.8811 25.2527 23.1888 24.945C23.4965 24.6388 23.4965 24.1386 23.1888 23.8323L20.7636 21.4071C20.6105 21.2525 20.4078 21.1767 20.2065 21.1767Z" fill="#1F212B"/>
<path d="M28.4361 20.0944C28.0205 20.5101 27.3409 20.5101 26.9253 20.0944L24.5001 17.6692C24.0859 17.2536 24.0859 16.574 24.5001 16.1599C24.9157 15.7442 25.5953 15.7442 26.0109 16.1599L28.4361 18.5851C28.8503 18.9992 28.8503 19.6788 28.4361 20.0944Z" fill="#D8955F"/>
<path d="M27.6805 20.6867C27.3364 20.6867 26.9908 20.5554 26.7283 20.2929L24.303 17.8677C23.7766 17.3413 23.7766 16.4867 24.303 15.9617C24.828 15.4367 25.6826 15.4352 26.2076 15.9617L28.6328 18.3869C29.1593 18.9119 29.1593 19.7679 28.6328 20.2929C28.3703 20.5554 28.0262 20.6867 27.6805 20.6867ZM25.2553 16.1279C25.0541 16.1279 24.8528 16.2038 24.6983 16.3569C24.392 16.6646 24.392 17.1648 24.6983 17.4711L27.1235 19.8963C27.4312 20.204 27.9314 20.2025 28.2376 19.8963C28.5453 19.59 28.5453 19.0898 28.2376 18.7821L25.8124 16.3569C25.6593 16.2038 25.4566 16.1279 25.2553 16.1279Z" fill="#1F212B"/>
<path d="M24.002 18.7675L24.3447 18.4263L24.002 18.7675Z" fill="white"/>
<path d="M24.0019 18.9075C23.9669 18.9075 23.9305 18.8944 23.9028 18.8667C23.8488 18.8127 23.8488 18.7238 23.9028 18.6683L24.2455 18.3271C24.2994 18.2731 24.3884 18.2731 24.4424 18.3271C24.4978 18.3825 24.4978 18.47 24.4424 18.5254L24.1011 18.8667C24.0749 18.8944 24.0384 18.9075 24.0019 18.9075Z" fill="#1F212B"/>
<path d="M21.9814 20.7886L23.5156 19.2544L21.9814 20.7886Z" fill="white"/>
<path d="M21.9815 20.9287C21.9451 20.9287 21.9086 20.9141 21.8824 20.8878C21.827 20.8324 21.827 20.7435 21.8824 20.6895L23.4165 19.1553C23.4705 19.0999 23.5595 19.0999 23.6149 19.1553C23.6688 19.2093 23.6688 19.2982 23.6149 19.3537L22.0793 20.8878C22.053 20.9141 22.0165 20.9287 21.9815 20.9287Z" fill="#1F212B"/>
</svg>
