<svg width="21" height="20" viewBox="0 0 21 20" fill="none" xmlns="http://www.w3.org/2000/svg">
<path d="M10.5003 1.6665C5.90831 1.6665 2.16699 5.40782 2.16699 9.99984C2.16699 14.5919 5.90831 18.3332 10.5003 18.3332C15.0923 18.3332 18.8337 14.5919 18.8337 9.99984C18.8337 5.40782 15.0923 1.6665 10.5003 1.6665ZM10.5003 3.74984C13.9639 3.74984 16.7503 6.5363 16.7503 9.99984C16.7503 13.4634 13.9639 16.2498 10.5003 16.2498C7.03678 16.2498 4.25033 13.4634 4.25033 9.99984C4.25033 6.5363 7.03678 3.74984 10.5003 3.74984ZM10.483 5.61182C9.91005 5.6205 9.44998 6.09359 9.45866 6.6665V8.95817H7.16699C6.78939 8.95383 6.44217 9.14914 6.25119 9.47466C6.06456 9.80018 6.06456 10.1995 6.25119 10.525C6.44217 10.8505 6.78939 11.0458 7.16699 11.0415H9.45866V13.3332C9.45432 13.7108 9.64963 14.058 9.97515 14.249C10.3007 14.4356 10.7 14.4356 11.0255 14.249C11.351 14.058 11.5463 13.7108 11.542 13.3332V11.0415H13.8337C14.2113 11.0458 14.5585 10.8505 14.7495 10.525C14.9361 10.1995 14.9361 9.80018 14.7495 9.47466C14.5585 9.14914 14.2113 8.95383 13.8337 8.95817H11.542V6.6665C11.5463 6.38439 11.4378 6.11529 11.2382 5.91564C11.0385 5.71598 10.7651 5.60748 10.483 5.61182Z" fill="white"/>
</svg>
