<svg width="20" height="20" viewBox="0 0 20 20" fill="none" xmlns="http://www.w3.org/2000/svg">
<path d="M8.33366 1.6665C4.66612 1.6665 1.66699 4.66564 1.66699 8.33317C1.66699 12.0007 4.66612 14.9998 8.33366 14.9998C9.79199 14.9998 11.1418 14.5181 12.2442 13.7151L16.5368 18.012C16.8015 18.2811 17.1878 18.3939 17.5524 18.2984C17.917 18.203 18.2035 17.9165 18.2989 17.5519C18.3944 17.1873 18.2816 16.8011 18.0125 16.5363L13.7156 12.2438C14.5186 11.1413 15.0003 9.7915 15.0003 8.33317C15.0003 4.66564 12.0012 1.6665 8.33366 1.6665ZM8.33366 3.74984C10.8771 3.74984 12.917 5.78977 12.917 8.33317C12.917 10.8766 10.8771 12.9165 8.33366 12.9165C5.79026 12.9165 3.75033 10.8766 3.75033 8.33317C3.75033 5.78977 5.79026 3.74984 8.33366 3.74984Z" fill="#1F212B"/>
</svg>
