<svg width="20" height="20" viewBox="0 0 20 20" fill="none" xmlns="http://www.w3.org/2000/svg">
<g clip-path="url(#clip0_31_12888)">
<path d="M10.0003 12.4998C11.381 12.4998 12.5003 11.3805 12.5003 9.99984C12.5003 8.61913 11.381 7.49984 10.0003 7.49984C8.61961 7.49984 7.50033 8.61913 7.50033 9.99984C7.50033 11.3805 8.61961 12.4998 10.0003 12.4998Z" stroke="white" stroke-width="2" stroke-linecap="round" stroke-linejoin="round"/>
<path d="M15.6064 12.2726C15.5055 12.5011 15.4755 12.7545 15.52 13.0003C15.5646 13.246 15.6817 13.4728 15.8564 13.6514L15.9018 13.6968C16.0427 13.8375 16.1545 14.0046 16.2307 14.1886C16.307 14.3725 16.3462 14.5697 16.3462 14.7688C16.3462 14.9679 16.307 15.1651 16.2307 15.349C16.1545 15.5329 16.0427 15.7 15.9018 15.8407C15.7611 15.9816 15.594 16.0934 15.4101 16.1696C15.2261 16.2459 15.029 16.2851 14.8299 16.2851C14.6308 16.2851 14.4336 16.2459 14.2497 16.1696C14.0657 16.0934 13.8986 15.9816 13.7579 15.8407L13.7124 15.7953C13.5339 15.6206 13.3071 15.5035 13.0614 15.4589C12.8156 15.4144 12.5622 15.4444 12.3337 15.5453C12.1096 15.6413 11.9185 15.8008 11.7839 16.004C11.6493 16.2073 11.5771 16.4455 11.5761 16.6892V16.818C11.5761 17.2199 11.4165 17.6052 11.1323 17.8894C10.8482 18.1735 10.4628 18.3332 10.0609 18.3332C9.65909 18.3332 9.2737 18.1735 8.98956 17.8894C8.70541 17.6052 8.54578 17.2199 8.54578 16.818V16.7498C8.53991 16.4991 8.45875 16.2559 8.31283 16.0519C8.16692 15.8479 7.963 15.6925 7.7276 15.6059C7.4991 15.5051 7.24563 15.475 6.99988 15.5195C6.75413 15.5641 6.52736 15.6812 6.34881 15.8559L6.30336 15.9014C6.16264 16.0422 5.99554 16.154 5.8116 16.2302C5.62766 16.3065 5.4305 16.3457 5.23139 16.3457C5.03227 16.3457 4.83511 16.3065 4.65117 16.2302C4.46724 16.154 4.30013 16.0422 4.15942 15.9014C4.01854 15.7606 3.90679 15.5935 3.83054 15.4096C3.75429 15.2257 3.71504 15.0285 3.71504 14.8294C3.71504 14.6303 3.75429 14.4331 3.83054 14.2492C3.90679 14.0652 4.01854 13.8981 4.15942 13.7574L4.20487 13.712C4.37952 13.5334 4.49668 13.3066 4.54124 13.0609C4.5858 12.8151 4.55572 12.5617 4.45487 12.3332C4.35884 12.1091 4.19938 11.918 3.99613 11.7834C3.79288 11.6488 3.55471 11.5766 3.31093 11.5756H3.18214C2.7803 11.5756 2.39492 11.416 2.11077 11.1318C1.82662 10.8477 1.66699 10.4623 1.66699 10.0604C1.66699 9.6586 1.82662 9.27322 2.11077 8.98907C2.39492 8.70492 2.7803 8.54529 3.18214 8.54529H3.25033C3.50108 8.53943 3.74427 8.45826 3.94828 8.31235C4.15229 8.16643 4.30769 7.96252 4.39427 7.72711C4.49511 7.49861 4.52519 7.24515 4.48063 6.99939C4.43607 6.75364 4.31891 6.52687 4.14427 6.34832L4.09881 6.30287C3.95794 6.16215 3.84618 5.99505 3.76993 5.81111C3.69368 5.62717 3.65444 5.43001 3.65444 5.2309C3.65444 5.03178 3.69368 4.83462 3.76993 4.65069C3.84618 4.46675 3.95794 4.29965 4.09881 4.15893C4.23953 4.01805 4.40663 3.9063 4.59057 3.83005C4.7745 3.7538 4.97167 3.71455 5.17078 3.71455C5.36989 3.71455 5.56706 3.7538 5.75099 3.83005C5.93493 3.9063 6.10203 4.01805 6.24275 4.15893L6.2882 4.20438C6.46675 4.37903 6.69352 4.49619 6.93927 4.54075C7.18503 4.58531 7.4385 4.55523 7.66699 4.45438H7.7276C7.95167 4.35835 8.14276 4.19889 8.27737 3.99564C8.41197 3.79239 8.4842 3.55422 8.48517 3.31044V3.18166C8.48517 2.77981 8.64481 2.39443 8.92895 2.11028C9.2131 1.82614 9.59848 1.6665 10.0003 1.6665C10.4022 1.6665 10.7876 1.82614 11.0717 2.11028C11.3558 2.39443 11.5155 2.77981 11.5155 3.18166V3.24984C11.5164 3.49362 11.5887 3.73179 11.7233 3.93504C11.8579 4.13829 12.049 4.29774 12.2731 4.39378C12.5016 4.49462 12.755 4.5247 13.0008 4.48014C13.2465 4.43558 13.4733 4.31843 13.6518 4.14378L13.6973 4.09832C13.838 3.95745 14.0051 3.84569 14.1891 3.76944C14.373 3.69319 14.5702 3.65395 14.7693 3.65395C14.9684 3.65395 15.1655 3.69319 15.3495 3.76944C15.5334 3.84569 15.7005 3.95745 15.8412 4.09832C15.9821 4.23904 16.0939 4.40614 16.1701 4.59008C16.2464 4.77402 16.2856 4.97118 16.2856 5.17029C16.2856 5.36941 16.2464 5.56657 16.1701 5.7505C16.0939 5.93444 15.9821 6.10154 15.8412 6.24226L15.7958 6.28772C15.6211 6.46626 15.504 6.69303 15.4594 6.93879C15.4149 7.18454 15.4449 7.43801 15.5458 7.6665V7.72711C15.6418 7.95118 15.8013 8.14228 16.0045 8.27688C16.2078 8.41148 16.4459 8.48371 16.6897 8.48469H16.8185C17.2204 8.48469 17.6057 8.64432 17.8899 8.92846C18.174 9.21261 18.3337 9.59799 18.3337 9.99984C18.3337 10.4017 18.174 10.7871 17.8899 11.0712C17.6057 11.3554 17.2204 11.515 16.8185 11.515H16.7503C16.5065 11.516 16.2684 11.5882 16.0651 11.7228C15.8619 11.8574 15.7024 12.0485 15.6064 12.2726Z" stroke="white" stroke-width="2" stroke-linecap="round" stroke-linejoin="round"/>
</g>
<defs>
<clipPath id="clip0_31_12888">
<rect width="20" height="20" fill="white"/>
</clipPath>
</defs>
</svg>
