<svg width="37" height="18" viewBox="0 0 37 18" fill="none" xmlns="http://www.w3.org/2000/svg">
<path d="M7.752 13H6.384L2.268 6.772V13H0.9V4.648H2.268L6.384 10.864V4.648H7.752V13ZM9.09244 9.664C9.09244 9 9.22844 8.412 9.50044 7.9C9.78044 7.388 10.1564 6.992 10.6284 6.712C11.1084 6.424 11.6364 6.28 12.2124 6.28C12.7324 6.28 13.1844 6.384 13.5684 6.592C13.9604 6.792 14.2724 7.044 14.5044 7.348V6.388H15.8844V13H14.5044V12.016C14.2724 12.328 13.9564 12.588 13.5564 12.796C13.1564 13.004 12.7004 13.108 12.1884 13.108C11.6204 13.108 11.1004 12.964 10.6284 12.676C10.1564 12.38 9.78044 11.972 9.50044 11.452C9.22844 10.924 9.09244 10.328 9.09244 9.664ZM14.5044 9.688C14.5044 9.232 14.4084 8.836 14.2164 8.5C14.0324 8.164 13.7884 7.908 13.4844 7.732C13.1804 7.556 12.8524 7.468 12.5004 7.468C12.1484 7.468 11.8204 7.556 11.5164 7.732C11.2124 7.9 10.9644 8.152 10.7724 8.488C10.5884 8.816 10.4964 9.208 10.4964 9.664C10.4964 10.12 10.5884 10.52 10.7724 10.864C10.9644 11.208 11.2124 11.472 11.5164 11.656C11.8284 11.832 12.1564 11.92 12.5004 11.92C12.8524 11.92 13.1804 11.832 13.4844 11.656C13.7884 11.48 14.0324 11.224 14.2164 10.888C14.4084 10.544 14.5044 10.144 14.5044 9.688ZM25.6853 6.28C26.2053 6.28 26.6693 6.388 27.0773 6.604C27.4933 6.82 27.8173 7.14 28.0493 7.564C28.2893 7.988 28.4093 8.5 28.4093 9.1V13H27.0533V9.304C27.0533 8.712 26.9053 8.26 26.6093 7.948C26.3133 7.628 25.9093 7.468 25.3973 7.468C24.8853 7.468 24.4773 7.628 24.1733 7.948C23.8773 8.26 23.7293 8.712 23.7293 9.304V13H22.3733V9.304C22.3733 8.712 22.2253 8.26 21.9293 7.948C21.6333 7.628 21.2293 7.468 20.7173 7.468C20.2053 7.468 19.7973 7.628 19.4933 7.948C19.1973 8.26 19.0493 8.712 19.0493 9.304V13H17.6813V6.388H19.0493V7.144C19.2733 6.872 19.5573 6.66 19.9013 6.508C20.2453 6.356 20.6133 6.28 21.0053 6.28C21.5333 6.28 22.0053 6.392 22.4213 6.616C22.8373 6.84 23.1573 7.164 23.3813 7.588C23.5813 7.188 23.8933 6.872 24.3173 6.64C24.7413 6.4 25.1973 6.28 25.6853 6.28ZM36.21 9.532C36.21 9.78 36.194 10.004 36.162 10.204H31.11C31.15 10.732 31.346 11.156 31.698 11.476C32.05 11.796 32.482 11.956 32.994 11.956C33.73 11.956 34.25 11.648 34.554 11.032H36.03C35.83 11.64 35.466 12.14 34.938 12.532C34.418 12.916 33.77 13.108 32.994 13.108C32.362 13.108 31.794 12.968 31.29 12.688C30.794 12.4 30.402 12 30.114 11.488C29.834 10.968 29.694 10.368 29.694 9.688C29.694 9.008 29.83 8.412 30.102 7.9C30.382 7.38 30.77 6.98 31.266 6.7C31.77 6.42 32.346 6.28 32.994 6.28C33.618 6.28 34.174 6.416 34.662 6.688C35.15 6.96 35.53 7.344 35.802 7.84C36.074 8.328 36.21 8.892 36.21 9.532ZM34.782 9.1C34.774 8.596 34.594 8.192 34.242 7.888C33.89 7.584 33.454 7.432 32.934 7.432C32.462 7.432 32.058 7.584 31.722 7.888C31.386 8.184 31.186 8.588 31.122 9.1H34.782Z" fill="#222222"/>
</svg>
